<?xml version="1.0" encoding="UTF-8" standalone="no"?>
<svg width="250px" height="28px" viewBox="0 0 250 28" version="1.1" xmlns="http://www.w3.org/2000/svg" xmlns:xlink="http://www.w3.org/1999/xlink">
    <!-- Generator: Sketch 40.1 (33804) - http://www.bohemiancoding.com/sketch -->
    <title>long logo</title>
    <desc>Created with Sketch.</desc>
    <defs></defs>
    <g id="FOOTER" stroke="none" stroke-width="1" fill="none" fill-rule="evenodd">
        <g id="Medium-≥768px" transform="translate(-126.000000, -62.000000)" fill="#FFFFFF">
            <g id="long-logo" transform="translate(126.000000, 62.000000)">
                <path d="M23.5663443,10.0991815 L23.5663443,5.11083829 L26.4897002,5.11083829 C27.83206,5.11083829 28.9357834,6.24327877 28.9357834,7.6202629 C28.9357834,8.99749504 27.83206,10.0991815 26.4897002,10.0991815 L23.5663443,10.0991815 Z M14.5573985,14.9039931 C13.5731141,15.9136657 12.2305126,16.5257688 10.7392166,16.5257688 C7.78588008,16.5257688 5.36977756,14.0470982 5.36977756,11.0173363 C5.36977756,7.98732639 7.78588008,5.50865575 10.7392166,5.50865575 C12.2305126,5.50865575 13.5731141,6.12075893 14.5573985,7.13043155 L18.1969052,3.39704861 L18.1969052,18.637624 L14.5573985,14.9039931 Z M18.1969052,21.7286458 L23.5663443,21.7286458 L23.5663443,14.9039931 L25.1475822,14.9039931 L29.0254836,21.7286458 L35.230029,21.7286458 L30.5167795,13.8635665 C32.754207,12.6698661 34.3054642,10.2827133 34.3054642,7.49774306 C34.3054642,3.51932044 31.143472,0.306026786 27.2953095,0.306026786 L18.1969052,0.306026786 L18.1969052,3.09099702 C16.227853,1.19342758 13.6328337,-2.48015872e-05 10.7392166,-2.48015872e-05 C4.8327853,-2.48015872e-05 9.6711799e-05,4.89655258 9.6711799e-05,11.0173363 C9.6711799e-05,17.137872 4.8327853,22.0346974 10.7392166,22.0346974 C13.6328337,22.0346974 16.227853,20.840997 18.1969052,18.9436756 L18.1969052,21.7286458 Z" id="Fill-1"></path>
                <path d="M240.398404,18.6075149 L239.533317,19.8622272 C240.875677,21.0864335 242.636074,21.8823165 244.933221,21.8823165 C247.618424,21.8823165 249.766393,20.3825645 249.766393,17.75062 C249.766393,15.6695188 248.781867,14.78187 245.589652,13.6494296 L244.366248,13.2211062 C242.576354,12.609003 241.621567,11.9968998 241.621567,10.6501736 C241.621567,8.96688988 243.143085,8.32428075 244.545406,8.32428075 C245.888008,8.32428075 247.320068,9.05890377 248.364072,10.0075645 L249.28912,8.69159226 C247.946518,7.58965774 246.48472,6.91654266 244.545406,6.91654266 C242.099081,6.91654266 240.100048,8.26302083 240.100048,10.7419395 C240.100048,12.6395089 241.204014,13.8332093 243.918956,14.812624 L245.291296,15.3022073 C247.320068,16.0368304 248.244874,16.4346478 248.244874,17.75062 C248.244874,19.6481895 246.633897,20.4743304 244.933221,20.4743304 C243.143085,20.4743304 241.561847,19.7092014 240.398404,18.6075149" id="Fill-4"></path>
                <path d="M238.578796,20.902877 L238.161243,19.6174107 C237.325653,20.137748 236.490305,20.3825397 235.505779,20.3825397 C234.103699,20.3825397 233.447268,19.5256448 233.447268,17.964881 L233.447268,8.5077877 L238.459357,8.5077877 L238.459357,7.00828373 L233.447268,7.00828373 L233.447268,1.95843254 L231.86603,1.95843254 L231.86603,17.9953869 C231.86603,20.4132937 233.029715,21.8822917 235.41632,21.8822917 C236.580005,21.8822917 237.624009,21.5454861 238.578796,20.902877" id="Fill-6"></path>
                <path d="M224.58675,21.7292163 L224.58675,13.068006 C224.914845,9.82395833 227.570309,8.23244048 230.255271,8.59975198 L230.255271,6.94697421 C227.868424,6.57991071 225.660735,7.80411706 224.58675,9.94623016 L224.557012,7.0389881 L223.035251,7.0389881 L223.035251,21.7292163 L224.58675,21.7292163 Z" id="Fill-8"></path>
                <path d="M213.965716,20.2907738 C210.803482,20.2907738 208.237476,17.6280754 208.237476,14.3840278 C208.237476,11.1399802 210.803482,8.47728175 213.965716,8.47728175 C217.15793,8.47728175 219.723694,11.1399802 219.723694,14.3840278 C219.723694,17.6280754 217.15793,20.2907738 213.965716,20.2907738 M213.965716,6.88576389 C209.938395,6.88576389 206.686219,10.2523313 206.686219,14.3840278 C206.686219,18.5157242 209.938395,21.8822917 213.965716,21.8822917 C217.993279,21.8822917 221.275193,18.5157242 221.275193,14.3840278 C221.275193,10.2523313 217.993279,6.88576389 213.965716,6.88576389" id="Fill-10"></path>
                <path d="M198.035662,20.2907738 C194.902926,20.2907738 192.3669,17.6280754 192.3669,14.3840278 C192.3669,11.1399802 194.902926,8.47728175 198.035662,8.47728175 C201.168399,8.47728175 203.704425,11.1399802 203.704425,14.3840278 C203.704425,17.6280754 201.168399,20.2907738 198.035662,20.2907738 M198.035662,6.88576389 C195.648815,6.88576389 193.560324,8.23249008 192.3669,10.2830853 L192.3669,7.03878968 L190.815401,7.03878968 L190.815401,27.6972718 L192.3669,27.6972718 L192.3669,18.4544643 C193.590305,20.5355655 195.708535,21.8822917 198.125121,21.8822917 C202.033728,21.8822917 205.255924,18.5157242 205.255924,14.3840278 C205.255924,10.2523313 202.003748,6.88576389 198.035662,6.88576389" id="Fill-12"></path>
                <path d="M177.240135,13.312872 C177.65793,10.344122 179.835638,8.35478671 182.461122,8.35478671 C185.086605,8.35478671 187.264555,10.344122 187.443472,13.312872 L177.240135,13.312872 Z M189.054691,13.7414435 C189.054691,9.64025298 186.130851,6.88578869 182.491103,6.88578869 C178.761654,6.88578869 175.629159,9.91579861 175.629159,14.3227927 C175.629159,18.6687748 178.910832,21.8823165 182.759478,21.8823165 C185.056867,21.8823165 187.025919,20.9029018 188.398259,19.0970982 L187.294294,18.1484375 C186.250048,19.6174355 184.66881,20.3825645 182.759478,20.3825645 C179.805899,20.3825645 177.419052,18.0259177 177.210397,14.78187 L189.054691,14.78187 L189.054691,13.7414435 Z" id="Fill-15"></path>
                <path d="M163.188201,11.3235615 L163.188201,1.89722222 L168.498888,1.89722222 C171.780803,1.89722222 173.690377,3.79479167 173.690377,6.61051587 C173.690377,9.11994048 172.019439,11.3235615 168.439168,11.3235615 L163.188201,11.3235615 Z M169.78177,12.8233135 C173.302321,12.2722222 175.361074,9.67078373 175.361074,6.61051587 C175.361074,2.96840278 172.944487,0.305704365 168.528627,0.305704365 L161.547244,0.305704365 L161.547244,21.7293155 L163.188201,21.7293155 L163.188201,12.9150794 L167.842456,12.9150794 L173.749855,21.7293155 L175.748888,21.7293155 L169.78177,12.8233135 Z" id="Fill-17"></path>
                <path d="M153.999444,21.7292163 L153.999444,13.068006 C154.327539,9.82395833 156.982761,8.23244048 159.667964,8.59975198 L159.667964,6.94697421 C157.281117,6.57991071 155.073428,7.80411706 153.999444,9.94623016 L153.969705,7.0389881 L152.447945,7.0389881 L152.447945,21.7292163 L153.999444,21.7292163 Z" id="Fill-19"></path>
                <path d="M138.873694,13.312872 C139.291489,10.344122 141.469197,8.35478671 144.094681,8.35478671 C146.720164,8.35478671 148.898114,10.344122 149.077031,13.312872 L138.873694,13.312872 Z M150.688008,13.7414435 C150.688008,9.64025298 147.76441,6.88578869 144.124662,6.88578869 C140.395213,6.88578869 137.262718,9.91579861 137.262718,14.3227927 C137.262718,18.6687748 140.544391,21.8823165 144.393037,21.8823165 C146.690426,21.8823165 148.659478,20.9029018 150.031818,19.0970982 L148.927853,18.1484375 C147.883607,19.6174355 146.302369,20.3825645 144.393037,20.3825645 C141.439458,20.3825645 139.052611,18.0259177 138.843956,14.78187 L150.688008,14.78187 L150.688008,13.7414435 Z" id="Fill-21"></path>
                <path d="M115.752321,14.2616319 C115.812041,10.3747272 117.721373,8.35488591 120.376596,8.35488591 C122.614265,8.35488591 124.106044,9.82388393 124.076064,12.4558284 L124.076064,21.7291419 L125.627563,21.7291419 L125.627563,14.2616319 C125.687282,10.3747272 127.596615,8.35488591 130.251838,8.35488591 C132.489507,8.35488591 133.981044,9.82388393 133.951306,12.4558284 L133.951306,21.7291419 L135.502805,21.7291419 L135.502805,12.3948165 C135.532544,8.96698909 133.65295,6.8858879 130.430754,6.8858879 C128.133607,6.8858879 126.194294,8.29362599 125.358946,10.3747272 C124.732495,8.20186012 123.002079,6.8858879 120.555754,6.8858879 C118.437524,6.8858879 116.587669,8.1406002 115.752321,9.97690972 L115.752321,7.03891369 L114.200822,7.03891369 L114.200822,21.7291419 L115.752321,21.7291419 L115.752321,14.2616319 Z" id="Fill-23"></path>
                <path d="M110.322751,21.7292163 L111.87425,21.7292163 L111.87425,7.0389881 L110.322751,7.0389881 L110.322751,14.506498 C110.263032,18.3934028 108.174782,20.413244 105.280682,20.413244 C102.983535,20.413244 101.462016,18.944246 101.462016,16.3120536 L101.462016,7.0389881 L99.9105174,7.0389881 L99.9105174,16.3733135 C99.9105174,19.8011409 101.81985,21.8822421 105.101765,21.8822421 C107.458632,21.8822421 109.457664,20.5662698 110.322751,18.6381944 L110.322751,21.7292163 Z" id="Fill-25"></path>
                <path d="M88.7823259,18.6075149 L87.9172389,19.8622272 C89.2595986,21.0864335 91.0199952,21.8823165 93.3171422,21.8823165 C96.0023453,21.8823165 98.1503143,20.3825645 98.1503143,17.75062 C98.1503143,15.6695188 97.1657882,14.78187 93.9735735,13.6494296 L92.750411,13.2211062 C90.9602756,12.609003 90.0054884,11.9968998 90.0054884,10.6501736 C90.0054884,8.96688988 91.5270068,8.32428075 92.9293279,8.32428075 C94.2719294,8.32428075 95.7039894,9.05890377 96.748235,10.0075645 L97.6730416,8.69159226 C96.33044,7.58965774 94.8686412,6.91654266 92.9293279,6.91654266 C90.4830029,6.91654266 88.48397,8.26302083 88.48397,10.7419395 C88.48397,12.6395089 89.5879352,13.8332093 92.3028772,14.812624 L93.6752176,15.3022073 C95.7039894,16.0368304 96.6287959,16.4346478 96.6287959,17.75062 C96.6287959,19.6481895 95.0178191,20.4743304 93.3171422,20.4743304 C91.5270068,20.4743304 89.9457689,19.7092014 88.7823259,18.6075149" id="Fill-27"></path>
                <path d="M75.9239845,14.2616319 C75.9837041,10.3747272 78.0719536,8.35488591 80.9660542,8.35488591 C83.2632012,8.35488591 84.7847195,9.82388393 84.7847195,12.4558284 L84.7847195,21.7291419 L86.3362186,21.7291419 L86.3362186,12.3948165 C86.3362186,8.96698909 84.4268859,6.8858879 81.144971,6.8858879 C78.7881044,6.8858879 76.7890716,8.20186012 75.9239845,10.1299355 L75.9239845,7.03891369 L74.3724855,7.03891369 L74.3724855,21.7291419 L75.9239845,21.7291419 L75.9239845,14.2616319 Z" id="Fill-29"></path>
                <path d="M65.3032157,20.2907738 C62.1407398,20.2907738 59.5749758,17.6280754 59.5749758,14.3840278 C59.5749758,11.1399802 62.1407398,8.47728175 65.3032157,8.47728175 C68.4954304,8.47728175 71.0611944,11.1399802 71.0611944,14.3840278 C71.0611944,17.6280754 68.4954304,20.2907738 65.3032157,20.2907738 M65.3032157,6.88576389 C61.2756528,6.88576389 58.0237186,10.2523313 58.0237186,14.3840278 C58.0237186,18.5157242 61.2756528,21.8822917 65.3032157,21.8822917 C69.3307785,21.8822917 72.6126934,18.5157242 72.6126934,14.3840278 C72.6126934,10.2523313 69.3307785,6.88576389 65.3032157,6.88576389" id="Fill-31"></path>
                <path d="M55.6669971,16.6182044 C54.0260397,18.7910714 51.4602756,20.1377976 48.5961557,20.1377976 C43.7035058,20.1377976 39.6757012,16.0366071 39.6757012,10.987004 C39.6757012,5.96765873 43.7035058,1.86671627 48.5961557,1.86671627 C51.4902563,1.86671627 54.0260397,3.21319444 55.6669971,5.41681548 L56.9201402,4.16210317 C54.951088,1.71369048 51.9377901,0.122172619 48.5961557,0.122172619 C42.7487186,0.122172619 37.975266,5.01899802 37.975266,10.987004 C37.975266,16.9855159 42.7487186,21.8823413 48.5961557,21.8823413 C51.9377901,21.8823413 54.9211074,20.2908234 56.8604207,17.8119048 L55.6669971,16.6182044 Z" id="Fill-33"></path>
            </g>
        </g>
    </g>
</svg>