<svg version="1.1" xmlns="http://www.w3.org/2000/svg" xmlns:xlink="http://www.w3.org/1999/xlink" x="0" y="0" width="1000" height="1000" viewBox="0 0 1000 1000" xml:space="preserve"><g><g><circle fill="#FAA919" cx="14.9" cy="54.9" r="14.9"/><path fill="#FFC10D" d="M25.5 49.4l-16.4 16c1.4.8 3.1 1.3 4.8 1.4l13-12.6c-.1-1.7-.6-3.4-1.4-4.8zM16.8 43L3 56.5c.4 2.7 1.7 5.2 3.6 7l17.2-16.7c-1.8-2-4.2-3.3-7-3.8z"/></g><g><path fill="#FF6C00" d="M41.6 68.9c-5.7 0-10.4-4.7-10.4-10.4 0-3.1 1.3-5.9 3.7-7.9.2-.1.7-.6.6-1.1 0-.4.2-.8.6-1 .1-.1.3-.1.4-.1.3 0 .5.1.7.3.2.2.7.7.7 2.1 0 .2 0 .5-.1.7-.1.4-.1.7-.3 1.2-.1.2-.1.3-.2.5s-.1.3-.2.5c0 .2-.1.4 0 .6 0 .2.2.4.4.7.2.2.5.3.8.3.1 0 .3 0 .4-.1 1-.3.9-1.8.7-2.6-.1-.5-.3-1-.5-1.6-.3-.8-.6-1.7-.6-2.7 0-.6.1-1.2.2-1.8.2-.8.5-1.6 1-2.3.3-.5.7-.9 1-1.2l.3-.3c.2-.2.5-.4.8-.5h.2c.2 0 .5.1.6.2.2.2.4.5.4.8 0 .1 0 .3-.1.4-.5 1.7 1.1 3.2 2.3 4.1 2.6 1.8 4.1 3.8 5 5 1.2 1.7 1.8 3.7 1.8 5.8.2 5.7-4.5 10.4-10.2 10.4z"/><path fill="#FFF" d="M42 43v.2c-.8 2.6 1.8 4.6 2.7 5.2 2.5 1.8 3.9 3.6 4.7 4.8 1.1 1.6 1.6 3.4 1.6 5.3 0 5.2-4.2 9.4-9.4 9.4s-9.4-4.2-9.4-9.4c0-2.8 1.2-5.4 3.3-7.2.4-.3 1-1 1-1.9h.1s.4.3.4 1.3v.6c0 .3-.1.6-.2 1 0 .2-.1.3-.2.4-.1.2-.2.4-.2.6-.1.3-.1.6-.1.9.1.5.3.9.8 1.3.4.3.9.5 1.4.5.2 0 .5 0 .8-.1.7-.2 1.8-1.1 1.4-3.7-.1-.6-.3-1.2-.5-1.8-.3-.8-.5-1.5-.5-2.4 0-.5.1-1.1.2-1.6.2-.7.5-1.4.9-2 .3-.4.6-.8.9-1.1l.3-.3c-.2.1-.1 0 0 0m0-2h-.4c-.5.1-.9.4-1.3.8l-.3.3c-.4.4-.8.8-1.1 1.4-.5.8-.9 1.7-1.1 2.7-.1.5-.2 1-.2 1.6-.3-.2-.7-.3-1-.3-.3 0-.6.1-.8.2-.7.3-1.2 1.1-1.2 1.8 0 .1-.1.2-.3.3-2.6 2.2-4 5.3-4 8.7 0 6.3 5.1 11.4 11.4 11.4 6.3 0 11.4-5.1 11.4-11.4 0-2.3-.7-4.5-1.9-6.4-.9-1.3-2.5-3.3-5.2-5.3-1.6-1.2-2.2-2.2-1.9-3.1.1-.2.1-.4.1-.7 0-.6-.2-1.2-.7-1.6-.6-.2-1-.4-1.5-.4zm-3.8 13v-.1c0-.1.1-.2.1-.3.1-.2.2-.4.2-.6v-.1c.1.9 0 1.2-.1 1.3h-.2V54z"/></g><g><path fill="#FF6C00" d="M367.1 49.4c.1-.1.1-.3.2-.4.1-.3.2-.7.2-1v-.6c0-.9-.3-1.2-.4-1.2h-.1c0 .8-.6 1.5-.9 1.8-2 1.7-3.2 4.2-3.2 6.8 0 5 4 9 9 9s9-4 9-9c0-1.8-.5-3.5-1.5-5-.8-1.2-2.2-2.9-4.5-4.6-.8-.6-3.3-2.5-2.6-5V40c-.1 0-.2.1-.2.2l-.3.3c-.3.3-.6.7-.9 1.1-.4.6-.7 1.2-.8 1.9-.1.5-.2 1-.2 1.5 0 .8.2 1.5.5 2.3.2.6.4 1.1.5 1.7.4 2.5-.6 3.3-1.3 3.5-.2.1-.5.1-.7.1-.5 0-1-.2-1.4-.5-.4-.4-.7-.8-.7-1.2 0-.3 0-.6.1-.9.1-.3.1-.4.2-.6z"/></g><g><path fill="#FFA200" d="M646.5 68.1c-5.6 0-10.2-4.6-10.2-10.2 0-3 1.3-5.8 3.6-7.8.3-.3.5-.6.5-.8 0-.5.3-1 .7-1.2.2-.1.3-.1.5-.1.3 0 .6.1.9.3.2.2.8.8.8 2.2 0 .2 0 .5-.1.7 0 .4-.1.7-.3 1.1-.1.2-.1.4-.2.5-.1.1-.1.3-.2.4v.4c0 .2.2.4.3.4.1.1.3.2.5.2.1 0 .2 0 .3-.1.7-.2.6-1.4.5-2.1-.1-.5-.2-1-.4-1.5-.3-.8-.6-1.7-.6-2.6 0-.6.1-1.2.2-1.8.2-.8.5-1.6 1-2.3.3-.5.7-.9 1-1.2l.3-.3c.3-.3.6-.5.9-.5h.3c.3 0 .6.1.8.3.3.2.5.6.5 1 0 .2 0 .3-.1.5-.4 1.5 1 2.8 2.1 3.6 2.5 1.8 4 3.6 4.8 4.9 1.1 1.7 1.7 3.6 1.7 5.7.1 5.7-4.5 10.3-10.1 10.3z"/><path fill="#FFF" d="M646.9 43.1v.2c-.7 2.5 1.7 4.3 2.5 5 2.3 1.7 3.7 3.4 4.5 4.6 1 1.5 1.5 3.2 1.5 5 0 4.9-4 9-9 9-4.9 0-9-4-9-9 0-2.6 1.1-5.1 3.2-6.8.4-.3 1-1 .9-1.8h.1s.4.3.4 1.2v.6c0 .3-.1.6-.2 1 0 .1-.1.3-.2.4-.1.2-.1.4-.2.6-.1.3-.1.6 0 .9.1.4.3.9.7 1.2.4.3.8.5 1.3.5.2 0 .5 0 .7-.1.7-.2 1.7-1 1.3-3.5-.1-.6-.3-1.1-.5-1.7-.3-.8-.5-1.5-.5-2.2 0-.5.1-1 .2-1.5.2-.7.4-1.3.8-1.9.3-.4.6-.7.9-1.1l.3-.3c.1-.2.2-.3.3-.3m0-2.5c-.2 0-.4 0-.5.1-.6.1-1.1.4-1.6.9l-.3.3c-.4.4-.8.8-1.1 1.4-.5.8-.9 1.7-1.2 2.7-.1.3-.1.5-.1.8h-.5c-.4 0-.7.1-1.1.2-.8.4-1.4 1.2-1.4 2.1l-.1.1c-2.6 2.2-4 5.4-4 8.7 0 6.3 5.1 11.5 11.5 11.5 6.3 0 11.5-5.1 11.5-11.5 0-2.3-.7-4.5-2-6.4-.9-1.3-2.5-3.3-5.1-5.2-1.5-1.2-1.7-1.9-1.6-2.3.1-.3.1-.5.1-.8 0-.8-.3-1.5-.9-2-.4-.4-1-.6-1.6-.6z"/></g><g><path fill="#E3E3E3" d="M671.1 68.1c-5.6 0-10.2-4.6-10.2-10.2 0-3 1.3-5.8 3.6-7.8.3-.3.5-.6.5-.8 0-.5.3-1 .7-1.2.2-.1.3-.1.5-.1.3 0 .6.1.9.3.2.2.8.8.8 2.2 0 .2 0 .5-.1.7 0 .4-.1.7-.2 1.1-.1.2-.1.4-.2.5-.1.1-.1.3-.2.4v.4c0 .2.2.4.3.5.1.1.3.2.5.2.1 0 .2 0 .3-.1.7-.2.6-1.4.5-2.1-.1-.5-.2-1-.4-1.5-.3-.8-.6-1.7-.6-2.6 0-.6.1-1.2.2-1.8.2-.8.5-1.6 1-2.3.3-.5.7-.9 1-1.2l.3-.3c.2-.3.6-.5.9-.5h.3c.3 0 .6.1.8.3.3.3.5.6.4 1 0 .2 0 .3-.1.5-.4 1.4 1 2.8 2.1 3.6 2.5 1.8 4 3.6 4.8 4.9 1.1 1.7 1.7 3.6 1.7 5.7.1 5.6-4.5 10.2-10.1 10.2z"/><path fill="#FFF" d="M671.5 43.1v.2c-.7 2.5 1.7 4.3 2.5 5 2.3 1.7 3.7 3.4 4.5 4.6 1 1.5 1.5 3.2 1.5 5 0 4.9-4 9-9 9-4.9 0-9-4-9-9 0-2.6 1.1-5.1 3.2-6.8.4-.3 1-1 .9-1.8h.1s.4.3.4 1.2v.6c0 .3-.1.6-.2 1 0 .1-.1.3-.2.4-.1.2-.1.4-.2.6-.1.3-.1.6 0 .9.1.4.3.9.7 1.2.4.3.8.5 1.3.5.2 0 .5 0 .7-.1.7-.2 1.7-1 1.3-3.5-.1-.6-.3-1.1-.5-1.7-.3-.8-.5-1.5-.5-2.2 0-.5.1-1 .2-1.5.2-.7.4-1.3.8-1.9.3-.4.6-.7.9-1.1l.3-.3.3-.3m0-2.5c-.2 0-.4 0-.5.1-.6.1-1.1.4-1.6.9l-.3.3c-.4.4-.8.8-1.1 1.4-.5.8-.9 1.7-1.2 2.7-.1.3-.1.5-.1.8h-.5c-.4 0-.7.1-1.1.2-.8.4-1.4 1.2-1.4 2.1l-.1.1c-2.6 2.2-4 5.4-4 8.7 0 6.3 5.1 11.5 11.5 11.5 6.3 0 11.5-5.1 11.5-11.5 0-2.3-.7-4.5-2-6.4-.9-1.3-2.5-3.3-5.1-5.2-1.5-1.2-1.7-1.9-1.6-2.3.1-.3.1-.5.1-.8 0-.8-.3-1.5-.9-2-.4-.4-1-.6-1.6-.6z"/></g><g><path fill="#D33131" d="M54.1 63.1V47.9l9.5-5.5 9.5 5.5v15.2l-9.5 5.5z"/><g><path fill="#FFF" d="M63.6 43.6l8.5 4.9v14.1l-8.5 4.9-8.5-4.9V48.5l8.5-4.9m0-2.3l-1 .6-8.5 4.9-1 .6v16.3l1 .6 8.5 4.9 1 .6 1-.6 8.5-4.9 1-.6V47.4l-1-.6-8.5-4.9-1-.6z"/></g></g><path fill="#F93D3D" d="M63.6 43.6l-8.4 4.9 3.5 2.9 4.9-1.6z"/><path fill="#AF2828" d="M63.6 67.4l8.5-4.9-3.5-2.9-5 1.6z"/><path fill="#E83838" d="M63.6 48.6l4.9 2.8v8.2l-4.9 2.8-4.9-2.8v-8.2z"/><g fill="#FFF"><path d="M59.3 53.7s-.1 0 0 0c-.5-1.2-1.4-2.1-2.5-2.5v-.1-.1c1.1-.5 2-1.4 2.4-2.5h.2c.4 1.1 1.3 2 2.4 2.5v.2c-1.1.5-2 1.4-2.5 2.5z"/><path d="M59.3 48.6c.5 1.1 1.3 2 2.5 2.5-1.1.5-2 1.4-2.5 2.5-.5-1.1-1.3-2-2.5-2.5 1.1-.4 2-1.4 2.5-2.5m0-.1c-.1 0-.1 0-.1.1-.4 1.1-1.3 2-2.4 2.4-.1 0-.1.1-.1.1s0 .1.1.1c1.1.5 2 1.3 2.4 2.4 0 .1.1.1.1.1s.1 0 .1-.1c.4-1.1 1.3-2 2.4-2.4.1 0 .1-.1.1-.1s0-.1-.1-.1c-1.1-.5-2-1.3-2.4-2.4 0-.1-.1-.1-.1-.1z"/></g><path opacity=".3" fill="#F77F7F" d="M65.5 49.7l-6.8 6.8v3.1l.8.5 8.8-8.8zM61.9 61.4l6.6-6.6v-2.1l-8 8z"/><g><g><path fill="#D33131" d="M106.6 140l26.3 15.2V199l-26.3 15.2L80.2 199v-43.8z"/></g><path fill="#F93D3D" d="M106.6 140l-26.3 15.2 11 9.2 15.3-5z"/><path fill="#AF2828" d="M106.6 214.1l26.3-15.2-11-9.2-15.3 5z"/><path fill="#E83838" d="M106.6 155.6l15.3 8.8v25.4l-15.3 8.8-15.3-8.8v-25.4z"/><g fill="#FFF"><path d="M93.1 169.8c-.1 0-.1 0-.2-.1-1.1-2.7-3.3-4.9-5.9-6-.1 0-.1-.1-.1-.2s0-.1.1-.2c2.7-1.1 4.9-3.3 5.9-6 0-.1.1-.1.2-.1s.1 0 .2.1c1.1 2.7 3.2 4.9 5.9 6 .1 0 .1.1.1.2s0 .1-.1.2c-2.7 1.1-4.9 3.3-5.9 6-.1.1-.1.1-.2.1z"/><path d="M93.1 157.3c1.1 2.8 3.3 5 6 6.1-2.7 1.2-4.9 3.4-6 6.1-1.1-2.8-3.3-5-6-6.1 2.7-1.1 4.9-3.3 6-6.1m0-.3c-.1 0-.3.1-.3.2-1.1 2.7-3.2 4.8-5.8 5.9-.1.1-.2.2-.2.3s.1.3.2.3c2.6 1.1 4.8 3.3 5.8 5.9.1.1.2.2.3.2.1 0 .3-.1.3-.2 1.1-2.7 3.2-4.8 5.8-5.9.1-.1.2-.2.2-.3s-.1-.3-.2-.3c-2.6-1.1-4.8-3.3-5.8-5.9 0-.1-.1-.2-.3-.2z"/></g><path opacity=".3" fill="#F77F7F" d="M112.4 159l-21.1 21.1v9.7l2.6 1.4 27.2-27.2zM101.3 195.5l20.6-20.5v-6.8L97 193.1z"/></g><path fill="#FFF" d="M37.5 52.6h2V55h-2z"/><g><path fill="#E02804" d="M87.2 60c-.1 0-.2 0-.3-.1-.1 0-.2-.1-.3-.1-5.4-3.9-8-6.1-9.6-7.9-1.7-2-2.1-3.6-2.1-5.7v-.1c0-3.5 3-6.3 6.8-6.3 2.2 0 4.2 1 5.5 2.6 1.3-1.6 3.3-2.6 5.5-2.6 3.7 0 6.8 2.8 6.8 6.3v.1c0 2.1-.4 3.6-2.1 5.7-1.5 1.8-4.1 3.9-9.6 7.9-.1.1-.1.1-.2.1-.1.1-.2.1-.4.1z"/></g><g><path fill="#E3E3E3" d="M138.5 60c-.1 0-.2 0-.3-.1-.1 0-.2-.1-.3-.1-5.6-3.9-8.2-6.1-9.8-7.9-1.8-2-2.1-3.6-2.1-5.7v-.1c0-3.5 3.1-6.3 6.9-6.3 2.2 0 4.3 1 5.6 2.6 1.3-1.6 3.4-2.6 5.6-2.6 3.8 0 6.9 2.8 6.9 6.3v.1c0 2.1-.4 3.6-2.1 5.7-1.6 1.8-4.2 3.9-9.8 7.9-.1.1-.1.1-.2.1-.2.1-.3.1-.4.1z"/></g><g><path fill="#E3E3E3" d="M138.2 60c-.1 0-.2 0-.3-.1-.1 0-.2-.1-.3-.1-5.4-3.9-8-6.1-9.6-7.9-1.7-2-2.1-3.6-2.1-5.7v-.1c0-3.5 3-6.3 6.8-6.3 2.2 0 4.2 1 5.5 2.6 1.3-1.6 3.3-2.6 5.5-2.6 3.7 0 6.8 2.8 6.8 6.3v.1c0 2.1-.4 3.6-2.1 5.7-1.5 1.8-4.1 3.9-9.6 7.9-.1.1-.1.1-.2.1-.1.1-.2.1-.4.1z"/></g><g><path fill="#EC0000" d="M409.1 62.4h-.3c-.1 0-.2-.1-.2-.1-4.7-3.4-7-5.2-8.3-6.7-1.5-1.7-1.8-3.1-1.8-4.9v-.1c0-3 2.6-5.4 5.9-5.4 1.9 0 3.7.9 4.8 2.2 1.1-1.4 2.9-2.2 4.8-2.2 3.2 0 5.9 2.4 5.9 5.4v.1c0 1.8-.3 3.1-1.8 4.9-1.3 1.5-3.6 3.4-8.4 6.7-.1 0-.1.1-.2.1h-.4z"/></g><g fill="#353535"><path d="M115.1 52.9c.3-.3.9-.4 1.2-.1l7.6-7.6c.8-.8.8-2 0-2.8l-1.2-1.2c-.8-.8-2-.8-2.8 0l-7.4 7.4c.2.4.2.8-.1 1.1-.3.3-.8.4-1.1.1l-.9.9c-.7.7-.8 1.9-.1 2.7l-6 6-.7-.7-2.8 3.7 1.7 1.7 3.7-2.8-.8-.8 6-6 .2.2c.8.8 2 .8 2.8 0l.6-.6c-.2-.4-.2-.9.1-1.2zM117.6 53.9l-2.8 2.8 6.5 7 3.4-3.2-7.1-6.6zm3.8 7.7c-.7 0-1.2-.6-1.2-1.2 0-.7.6-1.2 1.2-1.2s1.2.6 1.2 1.2c.1.7-.5 1.2-1.2 1.2zM107 51.4l5.1-5.2-2.3-5-3.7-1.2-.6 1.4 2.1 2 .3 1.7-1.8 1.8-1.8-.2-1.8-2.3-1.3.4.8 4.2z"/></g><path fill="#FFF" d="M182.9 45.4c-3.9 0-3.3 4.8-6.2 4.5-1.8-4.6-6.4-7-10.4-7-5.1 0-9.7 4.4-10.5 9.3-1.5-.3-2-1.8-2.7-1.8-1.5 0 .3 3.9 4.1 6.7.3.3.6.5 1 .7-.3 1.1-.9 2-1 3.1-.1 1.4.4 1.9 1.4 2 1 .1 2.2-.4 2.3-3.1 0-.3.1-.5.1-.8 2.3.7 4.6.9 5.1.9s2.9.1 5.4-.4c.1.8 0 1.7.4 2.4.5 1.3 1.2 1.5 2.2 1.1.9-.4 1.8-1.3.7-3.8-.1-.3-.2-.5-.3-.7 1.8-.9 3.1-2.3 3.1-4.5 0-.8-.1-1.6-.2-2.3 1.3.3 2 1.4 4.9 1.4 3.2 0 4.4-2.2 4.6-3.6-.1-1 0-4.1-4-4.1z"/><path fill="none" stroke="#FFF" stroke-width="2.5" stroke-linecap="round" stroke-linejoin="round" stroke-miterlimit="10" d="M190.8 45.2s1.7 4.1-.1 8M196 42s3.1 7.5-.2 14.5"/><circle fill="#1CB0F6" cx="215.2" cy="55" r="14.9"/><path fill="#FFF" d="M218.4 48l-1.5 1.6 1.1.8-1.7 4 .7-3.4-1.5-1.1 1.5-3c-.6-.4-1.3-.6-1.9-.6-3.7 0-6.7 6.4-6.7 10.2 0 3.7 3 6.5 6.7 6.5s6.7-2.8 6.7-6.5c.1-2.6-1.3-6.4-3.4-8.5z"/><path opacity=".25" fill="#36C5F2" d="M221.5 53.6c-.5 4-3.9 6.9-8.1 6.9-1.5 0-2.9-.4-4.2-1.1 1.1 2.1 3.4 3.5 6 3.5 3.7 0 6.7-2.8 6.7-6.5 0-.8-.2-1.8-.4-2.8z"/><g><path fill="#D33131" d="M241.7 61.2c-5.6 0-10.1-4.5-10.1-10.1S236.1 41 241.7 41s10.1 4.5 10.1 10.1-4.5 10.1-10.1 10.1z"/><path fill="#FFF" d="M241.7 42c5 0 9.1 4.1 9.1 9.1s-4.1 9.1-9.1 9.1-9.1-4.1-9.1-9.1 4.1-9.1 9.1-9.1m0-2c-6.1 0-11.1 5-11.1 11.1s5 11.1 11.1 11.1 11.1-5 11.1-11.1-5-11.1-11.1-11.1z"/></g><path fill="#FFF" d="M278.7 52.7l-.4-2.3 3.1-.5 8.7.3 3.5.2.2 2.2-2.5 4.8-4.6 1.5-5.2-1.9-2.4-2.1z"/><circle fill="#FFF" cx="245.9" cy="48.9" r="1.3"/><circle fill="#FFF" cx="237.5" cy="48.9" r="1.3"/><path fill="#FFF" d="M236.8 55.9c0-2.7 2.2-4.8 4.8-4.8 2.7 0 4.8 2.2 4.8 4.8"/><g><path fill="#7AC70C" d="M286.4 61.2c-5.5 0-10.1-4.5-10.1-10.1S280.9 41 286.4 41s10.1 4.5 10.1 10.1-4.6 10.1-10.1 10.1zm-5.6-9.3c.5 2.7 2.8 4.7 5.6 4.7s5.1-2 5.6-4.7h-11.2z"/><path fill="#FFF" d="M286.4 42c5 0 9.1 4.1 9.1 9.1s-4.1 9.1-9.1 9.1-9.1-4.1-9.1-9.1 4.1-9.1 9.1-9.1m0 15.6c3.7 0 6.7-3 6.7-6.7h-13.4c.1 3.7 3 6.7 6.7 6.7m0-17.6c-6.1 0-11.1 5-11.1 11.1s5 11.1 11.1 11.1 11.1-5 11.1-11.1-5-11.1-11.1-11.1zm-4.2 12.9h8.5c-.8 1.6-2.4 2.7-4.2 2.7s-3.5-1.1-4.3-2.7z"/></g><circle fill="#FFF" cx="290.7" cy="47.9" r="1.3"/><circle fill="#FFF" cx="282.2" cy="47.9" r="1.3"/><path fill="#FFB103" d="M264.1 42c-5.1 0-9.1 4.1-9.1 9.1s4.1 9.1 9.1 9.1c5.1 0 9.1-4.1 9.1-9.1s-4.1-9.1-9.1-9.1zm5.1 12.6h-10.1c-.5 0-1-.4-1-1 0-.5.4-1 1-1h10.1c.5 0 1 .4 1 1s-.5 1-1 1z"/><g><path fill="#FFB103" d="M264.1 61.3c-5.6 0-10.1-4.6-10.1-10.1 0-5.6 4.6-10.1 10.1-10.1s10.1 4.6 10.1 10.1-4.5 10.1-10.1 10.1z"/><path fill="#FFF" d="M264.1 42c5.1 0 9.1 4.1 9.1 9.1 0 5.1-4.1 9.1-9.1 9.1-5.1 0-9.1-4.1-9.1-9.1-.1-5 4-9.1 9.1-9.1m0-2C258 40 253 45 253 51.1s5 11.1 11.1 11.1 11.1-5 11.1-11.1-5-11.1-11.1-11.1z"/></g><circle fill="#FFF" cx="268.3" cy="48.8" r="1.3"/><circle fill="#FFF" cx="259.8" cy="48.8" r="1.3"/><path fill="#FFF" d="M270.2 53.6c0 .5-.4 1-1 1h-10.1c-.5 0-1-.4-1-1 0-.5.4-1 1-1h10.1c.5 0 1 .5 1 1z"/><path fill="#00ADF8" d="M310.8 49.2l-8.3-8.3c-.9-.9-2.5-.9-3.4 0s-.9 2.5 0 3.4l6.6 6.6-6.6 6.6c-.9.9-.9 2.5 0 3.4s2.5.9 3.4 0l8.3-8.3c.5-.5.7-1.1.7-1.7 0-.6-.2-1.3-.7-1.7z"/><g><path fill="#FFF" d="M339.9 49h-27.1l3.7-9h19.9z"/><path fill="#7A3922" d="M315 59h23v5h-23z"/><path fill="#7A3922" d="M315 50h3v10h-3zM335 50h3v10h-3z"/><path fill="#472213" d="M337.5 60h-22.4l1.6-4h19.2z"/><path fill="#B71515" d="M312.8 49h5.3l2.5-9h-4.2zM339.9 49h-5.3l-2.5-9h4.4zM323.7 49h5.4l-.5-9h-4.4zM318.1 49.2c0 1.5-1.2 2.6-2.6 2.6s-2.6-1.2-2.6-2.6M329.1 49.2c0 1.5-1.2 2.7-2.7 2.7-1.5 0-2.7-1.2-2.7-2.7M339.9 49.2c0 1.5-1.2 2.6-2.6 2.6-1.5 0-2.6-1.2-2.6-2.6"/><path fill="#E5E5E5" d="M334.6 49.2c0 1.5-1.2 2.8-2.8 2.8-1.5 0-2.8-1.2-2.8-2.8M323.6 49.2c0 1.5-1.2 2.8-2.8 2.8-1.5 0-2.8-1.2-2.8-2.8"/></g><g><path fill="#FFC10D" d="M351.1 65.1c-1.8 0-3.3-1.3-3.5-3H342c-.4 0-.7-.2-.9-.5s-.1-.7.1-1l2.4-3.4v-6.7-.2c.1-2.8 1.7-5.3 4.2-6.5.2-1.5 1.6-2.7 3.1-2.7 1.6 0 2.9 1.1 3.1 2.6 2.6 1.2 4.3 3.7 4.4 6.6v7l2.1 3.4c.2.3.2.7 0 1s-.5.5-.9.5H354.4c0 1.6-1.5 2.9-3.3 2.9z"/><path fill="#FFF" d="M351 42c1.2 0 2.2 1 2.2 2.2v.1c2.5.9 4.3 3.3 4.3 6.1v7l2.3 3.6H353.6v.5c0 1.4-1.1 2.6-2.6 2.6s-2.6-1.1-2.6-2.6V61h-6.5l2.5-3.6v-7c0-2.8 1.8-5.1 4.2-6v-.2c.2-1.2 1.2-2.2 2.4-2.2m0-2c-1.9 0-3.5 1.3-4 3-2.6 1.4-4.2 4.1-4.4 7.1v6.7l-2.2 3.2c-.4.6-.5 1.4-.1 2.1.3.7 1 1.1 1.8 1.1h4.7c.6 1.8 2.3 3 4.3 3s3.7-1.3 4.3-3h4.4c.7 0 1.4-.4 1.8-1 .4-.6.3-1.4-.1-2l-2-3.1v-6.5-.3c-.1-3-1.9-5.7-4.5-7.1-.5-2-2.1-3.2-4-3.2z"/></g><g><path fill="#79A100" d="M389.5 64.2c-.6 0-1.2-.2-1.6-.7l-2.6-2.6c-.4-.4-.7-1-.7-1.6s.2-1.2.7-1.6 1-.7 1.6-.7c.6 0 1.2.2 1.6.7l1 1 4-4c.4-.4 1-.7 1.6-.7s1.2.2 1.6.7c.4.4.7 1 .7 1.6s-.2 1.2-.7 1.6l-5.6 5.6c-.3.4-.9.7-1.6.7z"/><path fill="#FFF" d="M395.2 54.9c.3 0 .7.1.9.4.5.5.5 1.4 0 1.9l-5.6 5.6c-.3.3-.6.4-.9.4-.3 0-.7-.1-.9-.4l-2.6-2.6c-.5-.5-.5-1.4 0-1.9.3-.3.6-.4.9-.4.3 0 .7.1.9.4l1.7 1.7 4.7-4.7c.2-.3.5-.4.9-.4m0-2c-.9 0-1.7.3-2.3 1l-3.3 3.3-.3-.3c-.6-.6-1.5-1-2.3-1s-1.7.3-2.3 1a3.32 3.32 0 0 0 0 4.7l2.6 2.6c.6.6 1.5 1 2.3 1 .9 0 1.7-.3 2.4-1l5.6-5.6c.6-.6 1-1.5 1-2.3s-.3-1.7-1-2.3c-.7-.7-1.5-1.1-2.4-1.1z"/></g><path fill="#1CAFF6" d="M471.2 40.1l11.9 11.6 11.5-11.6zM470.1 41.6l7.9 8.6-7.9 8.7zM496 41.6l-7.9 8.6 7.9 8.7z"/><path fill="#1CAFF6" d="M471.4 59.9h23.2l-7.9-8.3-3.8 3.4-3.6-3.4z"/><g fill="#FFF"><path d="M497.2 40.1l11.9 11.6 11.5-11.6zM496.1 41.6l7.9 8.6-7.9 8.7zM522 41.6l-7.9 8.6 7.9 8.7z"/><path d="M497.4 59.9h23.2l-7.9-8.3-3.8 3.4-3.6-3.4z"/></g><path d="M540.7 48h-5.5v-5.5c0-1.4-1.1-2.5-2.5-2.5s-2.5 1.1-2.5 2.5V48h-5.5c-1.4 0-2.5 1.1-2.5 2.5s1.1 2.5 2.5 2.5h5.5v5.5c0 1.4 1.1 2.5 2.5 2.5s2.5-1.1 2.5-2.5V53h5.5c1.4 0 2.5-1.1 2.5-2.5.1-1.4-1.1-2.5-2.5-2.5z"/><path fill="#FFF" d="M573.3 75.5h-3.5V72c0-.9-.7-1.7-1.7-1.7s-1.7.7-1.7 1.7v3.5h-3.5c-.9 0-1.7.7-1.7 1.7 0 .9.7 1.7 1.7 1.7h3.5v3.5c0 .9.7 1.7 1.7 1.7s1.7-.7 1.7-1.7v-3.5h3.5c.9 0 1.7-.7 1.7-1.7-.1-1-.8-1.7-1.7-1.7zM563.9 50.9v-2.6l-2.2-.3c-.2-.9-.5-1.8-1-2.6l1.2-1.6-1.9-1.9-1.6 1.2c-.8-.6-1.7-1-2.7-1.2l-.3-1.9H553l-.3 1.8c-1 .2-2 .6-2.8 1.2l-1.5-1.1-1.9 1.9 1.2 1.5c-.5.8-.9 1.7-1 2.7l-2 .3v2.6l2.1.3c.2.9.6 1.7 1.1 2.4l-1.4 1.8 1.9 1.9 1.9-1.4c.7.4 1.5.7 2.3.9l.3 2.4h2.6l.3-2.5c.8-.2 1.5-.5 2.2-.9l2 1.5 1.9-1.9-1.4-1.9c.5-.7.8-1.5 1-2.3l2.4-.3zm-9.6 1.8c-1.9 0-3.4-1.5-3.4-3.4s1.5-3.4 3.4-3.4 3.4 1.5 3.4 3.4-1.6 3.4-3.4 3.4zM591 79.2v-2.1l-1.8-.2c-.1-.8-.4-1.5-.8-2.1l1-1.3-1.5-1.5-1.3 1c-.7-.5-1.4-.8-2.2-1l-.2-1.5h-2.1l-.2 1.5c-.8.2-1.6.5-2.3 1l-1.2-.9-1.5 1.5.9 1.2c-.4.7-.7 1.4-.8 2.2l-1.6.2v2.1l1.7.2c.2.7.5 1.4.9 2l-1.1 1.5 1.5 1.5 1.5-1.2c.6.3 1.2.6 1.9.7l.3 2h2.1l.3-2c.6-.2 1.3-.4 1.8-.7l1.6 1.2 1.5-1.5-1.2-1.6c.4-.6.7-1.2.8-1.9l2-.3zm-7.9 1.5c-1.5 0-2.7-1.2-2.7-2.7s1.2-2.7 2.7-2.7c1.5 0 2.7 1.2 2.7 2.7s-1.1 2.7-2.7 2.7zM566.3 58.9l-3.7 5.4-3.6-5.4z"/><path d="M575.5 44.8l3.1-3.1c.4-.4.4-1 0-1.4-.4-.4-1-.4-1.4 0l-3.7 3.7c-.2.2-.3.4-.3.7 0 .3.1.5.3.7l3.7 3.7c.4.4 1 .4 1.4 0 .4-.4.4-1 0-1.4l-3.1-2.9zM480.1 78.2l5.2-5.2c.7-.7.7-1.7 0-2.4s-1.7-.7-2.4 0l-6.4 6.4c-.3.3-.5.8-.5 1.2 0 .4.2.9.5 1.2l6.4 6.4c.7.7 1.7.7 2.4 0s.7-1.7 0-2.4l-5.2-5.2z"/><path fill="#FFF" d="M490.1 78.2l5.2-5.2c.7-.7.7-1.7 0-2.4s-1.7-.7-2.4 0l-6.4 6.4c-.3.3-.5.8-.5 1.2 0 .4.2.9.5 1.2l6.4 6.4c.7.7 1.7.7 2.4 0s.7-1.7 0-2.4l-5.2-5.2z"/><path fill="#CBCBCB" d="M412.1 78.2l5.2-5.2c.7-.7.7-1.7 0-2.4s-1.7-.7-2.4 0l-6.4 6.4c-.3.3-.5.8-.5 1.2 0 .4.2.9.5 1.2l6.4 6.4c.7.7 1.7.7 2.4 0s.7-1.7 0-2.4l-5.2-5.2z"/><path fill="#1CAFF6" d="M422.1 78.2l5.2-5.2c.7-.7.7-1.7 0-2.4s-1.7-.7-2.4 0l-6.4 6.4c-.3.3-.5.8-.5 1.2 0 .4.2.9.5 1.2l6.4 6.4c.7.7 1.7.7 2.4 0s.7-1.7 0-2.4l-5.2-5.2z"/><path d="M582.4 44.8l-3.1 3.1c-.4.4-.4 1 0 1.4.4.4 1 .4 1.4 0l3.7-3.7c.2-.2.3-.4.3-.7 0-.3-.1-.5-.3-.7l-3.7-3.7c-.4-.4-1-.4-1.4 0-.4.4-.4 1 0 1.4l3.1 2.9z"/><path fill="#1CAFF6" d="M575.5 54.8l3.1-3.1c.4-.4.4-1 0-1.4-.4-.4-1-.4-1.4 0l-3.7 3.7c-.2.2-.3.4-.3.7 0 .3.1.5.3.7l3.7 3.7c.4.4 1 .4 1.4 0 .4-.4.4-1 0-1.4l-3.1-2.9z"/><path fill="#1CAFF6" d="M582.4 54.8l-3.1 3.1c-.4.4-.4 1 0 1.4.4.4 1 .4 1.4 0l3.7-3.7c.2-.2.3-.4.3-.7 0-.3-.1-.5-.3-.7l-3.7-3.7c-.4-.4-1-.4-1.4 0-.4.4-.4 1 0 1.4l3.1 2.9z"/><path fill="#EC0B1B" d="M123.4 85.8l-5.3-5.3c-.7-.7-1.7-.7-2.4 0s-.7 1.7 0 2.4l6.4 6.4c.3.3.8.5 1.2.5.4 0 .9-.2 1.2-.5l6.4-6.4c.7-.7.7-1.7 0-2.4s-1.7-.7-2.4 0l-5.1 5.3z"/><path fill="#9C0" d="M123.4 74.1l5.3 5.3c.7.7 1.7.7 2.4 0s.7-1.7 0-2.4l-6.4-6.4c-.3-.3-.8-.5-1.2-.5-.4 0-.9.2-1.2.5l-6.4 6.4c-.7.7-.7 1.7 0 2.4s1.7.7 2.4 0l5.1-5.3z"/><path fill="#CBCBCB" d="M106.4 85.8l-5.3-5.3c-.7-.7-1.7-.7-2.4 0s-.7 1.7 0 2.4l6.4 6.4c.3.3.8.5 1.2.5.4 0 .9-.2 1.2-.5l6.4-6.4c.7-.7.7-1.7 0-2.4s-1.7-.7-2.4 0l-5.1 5.3zM106.4 74.1l5.3 5.3c.7.7 1.7.7 2.4 0s.7-1.7 0-2.4l-6.4-6.4c-.3-.3-.8-.5-1.2-.5-.4 0-.9.2-1.2.5L98.8 77c-.7.7-.7 1.7 0 2.4s1.7.7 2.4 0l5.2-5.3z"/><path fill="#353535" d="M13.4 70.3c-.4-.4-1-.4-1.4 0l-5.2 5.2-5.2-5.2c-.4-.4-1-.4-1.4 0-.4.4-.4 1 0 1.4L6 77.4c0 .1.1.2.2.2.4.4 1 .4 1.4 0l5.9-5.9c.3-.4.3-1-.1-1.4zM89.5 70.3c-.4.4-.4 1 0 1.4l5.2 5.2-5.3 5.1c-.4.4-.4 1 0 1.4.4.4 1 .4 1.4 0l5.7-5.7c.1 0 .2-.1.2-.2.4-.4.4-1 0-1.4l-5.9-5.9c-.3-.3-.9-.3-1.3.1z"/><path fill="#B0B0B0" d="M13.4 78.4c-.4-.4-1-.4-1.4 0l-5.2 5.2-5.2-5.2c-.4-.4-1-.4-1.4 0-.4.4-.4 1 0 1.4L6 85.5c0 .1.1.2.2.2.4.4 1 .4 1.4 0l5.9-5.9c.3-.4.3-1-.1-1.4z"/><g><circle fill="#9C0" cx="24" cy="80" r="10"/><path fill="#FFF" d="M29.5 76.6c-.4-.4-1-.4-1.4 0L22.7 82l-2.3-2.3c-.4-.4-1-.4-1.4 0-.4.4-.4 1 0 1.4l2.8 2.8c0 .1.1.2.2.3.4.4 1 .4 1.4 0l6.1-6.1c.4-.5.4-1.1 0-1.5z"/></g><path fill="#353535" d="M44.8 76v-1.9c0-2.3-1.9-4.1-4.1-4.1-2.3 0-4.1 1.9-4.1 4.1V76h-1.2v8.1H46V76h-1.2zm-6.5-1.9c0-1.3 1-2.3 2.3-2.3s2.3 1 2.3 2.3V76h-4.6v-1.9z"/><path fill="#FFF" d="M628 51.6v-2.2c0-2.7-2.2-4.9-4.9-4.9s-4.9 2.2-4.9 4.9v2.2h-1.5v9.6h12.8v-9.6H628zm-7.6-2.2c0-1.5 1.2-2.7 2.7-2.7 1.5 0 2.7 1.2 2.7 2.7v2.2h-5.4v-2.2z"/><path fill="#494949" d="M53.6 73.2c0-1.8-1.5-3.2-3.2-3.2s-3.2 1.5-3.2 3.2c0 1.3.8 2.5 2 3L47 82.9h6.6l-2.1-6.6c1.2-.5 2.1-1.6 2.1-3.1z"/><path fill="#B0B0B0" d="M83 70c-2.6 0-4.6 2.1-4.6 4.6 0 1 .3 2 .9 2.7L83 84l3.7-6.7c.6-.8.9-1.7.9-2.7 0-2.5-2-4.6-4.6-4.6zm0 6.3c-.9 0-1.7-.8-1.7-1.7s.8-1.7 1.7-1.7 1.7.8 1.7 1.7-.8 1.7-1.7 1.7z"/><path fill="#CBCBCB" d="M145.7 82l-3.7-3.7c.6-.9.9-1.9.9-3 0-3-2.4-5.4-5.4-5.4s-5.4 2.4-5.4 5.4 2.4 5.4 5.4 5.4c1.1 0 2-.3 2.9-.8l3.7 3.7c.5.5 1.2.5 1.6 0s.4-1.1 0-1.6zm-8.3-3.6c-1.7 0-3.1-1.4-3.1-3.1s1.4-3.1 3.1-3.1 3.1 1.4 3.1 3.1-1.4 3.1-3.1 3.1z"/><path fill="#E8E8E8" d="M166.7 81.1v-2.7l-2.2-.3c-.2-.9-.5-1.8-1-2.6l1.3-1.7-1.9-1.9-1.6 1.2c-.8-.6-1.8-1-2.8-1.2l-.3-1.9h-2.7l-.3 1.8c-1 .2-2 .6-2.9 1.2l-1.5-1.1-1.9 1.9 1.2 1.6c-.5.8-.9 1.8-1.1 2.8l-2 .3v2.7l2.2.3c.2.9.6 1.7 1.1 2.5l-1.4 1.8 1.9 1.9 1.9-1.5c.7.4 1.5.7 2.3.9l.3 2.5h2.7l.3-2.5c.8-.2 1.6-.5 2.3-.9l2 1.5 1.9-1.9-1.5-1.9c.5-.7.8-1.5 1-2.3l2.7-.5zm-9.8 1.8c-1.9 0-3.4-1.5-3.4-3.4s1.5-3.4 3.4-3.4 3.4 1.5 3.4 3.4c0 1.8-1.6 3.4-3.4 3.4z"/><path fill="#1CAFF6" d="M186.7 81.1v-2.7l-2.2-.3c-.2-.9-.5-1.8-1-2.6l1.3-1.7-1.9-1.9-1.6 1.2c-.8-.6-1.8-1-2.8-1.2l-.3-1.9h-2.7l-.3 1.8c-1 .2-2 .6-2.9 1.2l-1.5-1.1-1.9 1.9 1.2 1.6c-.5.8-.9 1.8-1.1 2.8l-2 .3v2.7l2.2.3c.2.9.6 1.7 1.1 2.5l-1.4 1.8 1.9 1.9 1.9-1.5c.7.4 1.5.7 2.3.9l.3 2.5h2.7l.3-2.5c.8-.2 1.6-.5 2.3-.9l2 1.5 1.9-1.9-1.5-1.9c.5-.7.8-1.5 1-2.3l2.7-.5zm-9.8 1.8c-1.9 0-3.4-1.5-3.4-3.4s1.5-3.4 3.4-3.4 3.4 1.5 3.4 3.4c0 1.8-1.6 3.4-3.4 3.4z"/><path fill="#1CB0F6" d="M223.4 70.3c-.4-.4-1-.4-1.4 0l-5.2 5.2-5.2-5.2c-.4-.4-1-.4-1.4 0-.4.4-.4 1 0 1.4l5.7 5.7c0 .1.1.2.2.2.4.4 1 .4 1.4 0l5.9-5.9c.4-.4.4-1 0-1.4z"/><path fill="#FFF" d="M223.4 78.4c-.4-.4-1-.4-1.4 0l-5.2 5.2-5.2-5.2c-.4-.4-1-.4-1.4 0-.4.4-.4 1 0 1.4l5.7 5.7c0 .1.1.2.2.2.4.4 1 .4 1.4 0l5.9-5.9c.4-.4.4-1 0-1.4zM313.4 70.3c-.4.4-.4 1 0 1.4l5.2 5.2-5.2 5.2c-.4.4-.4 1 0 1.4.4.4 1 .4 1.4 0l5.7-5.7c.1 0 .2-.1.2-.2.4-.4.4-1 0-1.4l-5.9-5.9c-.4-.4-1-.4-1.4 0z"/><g><path fill="#FF6C00" d="M228.4 77.1c0-.1.1-.2.1-.3.1-.3.1-.5.2-.7v-.4c0-.7-.3-.9-.3-.9 0 .6-.4 1.1-.7 1.3-1.5 1.3-2.4 3.2-2.4 5.2 0 3.8 3.1 6.8 6.8 6.8 3.8 0 6.8-3.1 6.8-6.8 0-1.4-.4-2.7-1.2-3.8-.6-.9-1.6-2.2-3.4-3.5-.6-.5-2.5-1.9-1.9-3.8v-.1c-.1 0-.1 0-.2.1s-.1.2-.2.2c-.2.3-.5.5-.7.8-.3.4-.5.9-.6 1.5-.1.4-.1.7-.1 1.1 0 .6.2 1.1.4 1.7.1.4.3.8.4 1.3.3 1.9-.5 2.5-1 2.7-.2.1-.4.1-.5.1-.4 0-.7-.1-1-.4-.3-.3-.5-.6-.5-.9v-.7c-.1-.2 0-.3 0-.5z"/></g><path fill="#2E2E2E" d="M254.6 80.1l3.9-3.9c1.3-1.3 1.3-3.4 0-4.7a3.32 3.32 0 0 0-4.7 0l-3.9 3.9-3.9-3.9a3.32 3.32 0 0 0-4.7 0 3.32 3.32 0 0 0 0 4.7l3.9 3.9-3.9 3.9a3.32 3.32 0 0 0 0 4.7c1.3 1.3 3.4 1.3 4.7 0l3.9-3.9 3.9 3.9c1.3 1.3 3.4 1.3 4.7 0 1.3-1.3 1.3-3.4 0-4.7l-3.9-3.9z"/><path fill="#EC0B1B" d="M230.9 105.4l6.3-6.3c2.1-2.1 2.1-5.5 0-7.5-2.1-2.1-5.5-2.1-7.5 0l-6.3 6.3-6.3-6.3c-2.1-2.1-5.5-2.1-7.5 0-2.1 2.1-2.1 5.5 0 7.5l6.3 6.3-6.3 6.3c-2.1 2.1-2.1 5.5 0 7.5 2.1 2.1 5.5 2.1 7.5 0l6.3-6.3 6.3 6.3c2.1 2.1 5.5 2.1 7.5 0 2.1-2.1 2.1-5.5 0-7.5l-6.3-6.3z"/><path fill="#FFF" d="M269.2 75.5l2.2-2.2c.7-.7.7-1.9 0-2.7-.7-.7-1.9-.7-2.7 0l-2.2 2.2-2.2-2.2c-.7-.7-1.9-.7-2.7 0-.7.7-.7 1.9 0 2.7l2.2 2.2-2.2 2.2c-.7.7-.7 1.9 0 2.7.7.7 1.9.7 2.7 0l2.2-2.2 2.2 2.2c.7.7 1.9.7 2.7 0 .7-.7.7-1.9 0-2.7l-2.2-2.2z"/><g><g><path fill="#FFF" d="M198.7 80c-.1 0-.2 0-.3-.1-.4-.2-.5-.6-.3-.9.9-1.9.1-3.9.1-3.9-.1-.4 0-.8.4-.9.4-.1.8 0 .9.4 0 .1 1.1 2.6-.1 5.1-.1.2-.4.3-.7.3z"/></g><g><path fill="#FFF" d="M201.6 81.8c-.1 0-.2 0-.3-.1-.4-.2-.5-.6-.3-.9 1.7-3.6.1-7.5.1-7.6-.1-.4 0-.8.4-.9.4-.1.8 0 .9.4.1.2 1.8 4.5-.1 8.7-.2.3-.4.4-.7.4z"/></g><path fill="#FFF" d="M189.4 74.2h1.6c.1 0 .2 0 .3-.1l4.3-3.6c.3-.2.7 0 .7.3v12.3c0 .3-.4.5-.7.3l-4.3-3.4c-.1-.1-.2-.1-.3-.1h-1.5c-.9 0-1.6-.7-1.6-1.6v-2.7c.1-.8.7-1.4 1.5-1.4z"/></g><g><path fill="#FFF" d="M148.4 125.6c-.4 0-.7-.1-1.1-.2-1.3-.6-1.8-2.1-1.2-3.4 3.2-6.8.2-14.2.2-14.3-.5-1.3.1-2.8 1.4-3.3 1.3-.5 2.8.1 3.3 1.4.2.4 3.8 9.6-.3 18.4-.4.9-1.3 1.4-2.3 1.4z"/></g><g><path fill="#FFF" d="M159 132.3c-.4 0-.7-.1-1.1-.2-1.3-.6-1.8-2.1-1.2-3.4 6.1-13.1.5-27.4.4-27.6-.5-1.3.1-2.8 1.4-3.3 1.3-.5 2.8.1 3.3 1.4.3.7 6.6 16.5-.5 31.6-.5.9-1.4 1.5-2.3 1.5z"/></g><path fill="#FFF" d="M114.5 104.4h5.9c.3 0 .7-.1 1-.3L137.2 91c1-.8 2.5-.1 2.5 1.2V137c0 1.3-1.5 2-2.4 1.2l-15.6-12.5c-.3-.2-.6-.3-.9-.3h-5.3c-3.3 0-5.9-2.7-5.9-5.9v-9.9c-.2-2.9 2.1-5.2 4.9-5.2zM287.5 70.5c-.8-.8-2-.8-2.8 0l-6.2 5.8-1.9-1.9c-.8-.8-2-.8-2.8 0s-.8 2 0 2.8l3.1 3.1c.2.2.4.3.7.4.7.4 1.7.2 2.3-.4l7.6-7.1c.8-.6.8-1.9 0-2.7z"/><path fill="#8DBC00" d="M204.8 91.6c-2.1-2.1-5.6-2.1-7.7 0l-16.8 15.7-5-5c-2.1-2.1-5.6-2.1-7.7 0-2.1 2.1-2.1 5.6 0 7.7l8.5 8.5c.5.5 1.1.9 1.8 1.2 2 1 4.5.7 6.2-1l20.7-19.3c2.1-2.3 2.1-5.7 0-7.8z"/><path fill="#C2C2C2" d="M296.9 76.1c.9-.6 1.4-1.6 1.4-2.8 0-1.9-1.5-3.4-3.4-3.4s-3.4 1.5-3.4 3.4c0 1.1.6 2.1 1.4 2.8-2 .8-3.5 2.8-3.5 5.1h10.9c.1-2.4-1.3-4.3-3.4-5.1zM301.2 70h1.8v10h-1.8zM304 76.1l4-1v1.2l3.3-.2v-4.7l-2.7.1v-1.4l-4.5.6z"/><path fill="#FFF" d="M55.3 108H.8l7.4-17h40z"/><path fill="#7A3922" d="M5 129h46v11H5z"/><path fill="#7A3922" d="M5 110h3v22H5zM46 110h5v22h-5z"/><path fill="#472213" d="M50.3 131H5.5l3.1-8h38.6z"/><path fill="#B71515" d="M.8 108h10.6l5.1-17H8zM55.3 108H44.6l-5-17h8.7zM22.6 108h10.9l-1-17h-8.9z"/><path fill="#B71515" d="M11.4 107c0 2.9-2.4 5.3-5.3 5.3S.8 109.9.8 107M33.5 107c0 3-2.4 5.4-5.4 5.4-3 0-5.4-2.4-5.4-5.4M55.3 107c0 2.9-2.4 5.3-5.3 5.3s-5.3-2.4-5.3-5.3"/><path fill="#E5E5E5" d="M44.6 107c0 3.1-2.5 5.6-5.6 5.6-3.1 0-5.6-2.5-5.6-5.6M22.6 107c0 3.1-2.5 5.6-5.6 5.6-3.1 0-5.6-2.5-5.6-5.6"/><path fill="#2E2E2E" d="M281.7 94c1.6 2 2 3.5 2 4.3-.7-.2-2.2-.9-3.8-2.9-1.6-2-1.9-3.4-2-4.3.8.3 2.2.9 3.8 2.9zM283.9 99.7c1.9 1.8 2.4 3.3 2.6 4-.8-.1-2.3-.6-4.1-2.4s-2.4-3.2-2.6-4c.8.2 2.3.6 4.1 2.4zM286.5 95.8c.5 2.5.1 4.1-.2 4.8-.5-.6-1.5-1.8-2-4.3s-.1-3.9.2-4.8c.6.6 1.5 1.8 2 4.3zM289.8 100.7c0 2.6-.7 4-1.2 4.6-.4-.7-1.1-2.1-1.1-4.6 0-2.6.7-3.9 1.2-4.6.5.7 1.1 2.1 1.1 4.6zM292.2 105.7c-1 2.4-2.1 3.5-2.8 3.9-.1-.8-.3-2.3.7-4.7 1-2.4 2.1-3.3 2.8-3.9.1.9.3 2.3-.7 4.7zM292 112.3c-1.4 2.2-2.7 3-3.4 3.3 0-.8.2-2.4 1.5-4.5 1.4-2.2 2.7-2.9 3.4-3.3 0 .8-.1 2.3-1.5 4.5zM291.8 117.8c-1.9 1.7-3.5 2.1-4.2 2.2.2-.7.8-2.2 2.8-3.9 1.9-1.7 3.4-2 4.2-2.2-.4.8-.9 2.2-2.8 3.9zM287.6 124.3c-2.5 1.7-4.3 2-5.2 2 .4-.8 1.3-2.5 3.7-4.1s4.2-1.9 5.2-2c-.4.9-1.2 2.4-3.7 4.1zM285.1 129.1c-3 .7-4.8.3-5.7-.1.6-.7 2.1-1.9 5.1-2.6 3-.7 4.7-.3 5.7.1-.8.7-2.2 1.9-5.1 2.6zM279 132.9c-3-.3-4.7-1.2-5.4-1.8.8-.4 2.6-1.1 5.6-.9s4.5 1.2 5.4 1.8c-.9.5-2.6 1.2-5.6.9zM270.6 137.5c-1.8-1.3-2.4-2.5-2.6-3.2.7 0 2 .3 3.8 1.6 1.8 1.3 2.3 2.5 2.6 3.2-.7-.1-2-.3-3.8-1.6zM273.7 135.2c-3-.6-4.5-1.7-5.2-2.3.8-.3 2.7-.9 5.7-.3 3 .6 4.4 1.7 5.2 2.3-1 .3-2.7.8-5.7.3z"/><path fill="#2E2E2E" d="M273.7 130.5c-2.4 1.9-4.2 2.3-5.1 2.4.3-.9 1.1-2.6 3.5-4.5s4.1-2.2 5.1-2.4c-.4 1-1.2 2.6-3.5 4.5zM281.4 125c-1.5 2.5-3 3.5-3.8 3.8 0-.9.1-2.7 1.6-5.1s2.9-3.4 3.8-3.8c0 .9-.1 2.6-1.6 5.1zM286.8 117c-.3 2.9-1.3 4.4-1.9 5-.4-.8-1-2.5-.6-5.3.3-2.9 1.3-4.3 1.9-5 .4.9.9 2.5.6 5.3zM287.8 108.5c1 2.4.9 4.1.7 4.8-.6-.5-1.9-1.5-2.9-3.9s-.9-3.9-.7-4.8c.7.5 1.9 1.5 2.9 3.9zM254.3 94c-1.6 2-2 3.5-2 4.3.7-.2 2.2-.9 3.8-2.9 1.6-2 1.9-3.4 2-4.3-.8.3-2.2.9-3.8 2.9zM252.1 99.7c-1.9 1.8-2.4 3.3-2.6 4 .8-.1 2.3-.6 4.1-2.4s2.4-3.2 2.6-4c-.8.2-2.2.6-4.1 2.4zM249.5 95.8c-.5 2.5-.1 4.1.2 4.8.5-.6 1.5-1.8 2-4.3s.1-3.9-.2-4.8c-.5.6-1.5 1.8-2 4.3zM246.2 100.7c0 2.6.7 4 1.2 4.6.4-.7 1.1-2.1 1.1-4.6 0-2.6-.7-3.9-1.2-4.6-.4.7-1.1 2.1-1.1 4.6zM243.8 105.7c1 2.4 2.1 3.5 2.8 3.9.1-.8.3-2.3-.7-4.7-1-2.4-2.1-3.3-2.8-3.9-.1.9-.2 2.3.7 4.7zM244.1 112.3c1.4 2.2 2.7 3 3.4 3.3 0-.8-.2-2.4-1.5-4.5-1.4-2.2-2.7-2.9-3.4-3.3-.1.8.1 2.3 1.5 4.5zM244.3 117.8c1.9 1.7 3.5 2.1 4.2 2.2-.2-.7-.8-2.2-2.8-3.9-1.9-1.7-3.4-2-4.2-2.2.3.8.9 2.2 2.8 3.9zM248.4 124.3c2.5 1.7 4.3 2 5.2 2-.4-.8-1.3-2.5-3.7-4.1-2.5-1.7-4.2-1.9-5.2-2 .4.9 1.3 2.4 3.7 4.1zM251 129.1c3 .7 4.8.3 5.7-.1-.6-.7-2.1-1.9-5.1-2.6-3-.7-4.7-.3-5.7.1.8.7 2.1 1.9 5.1 2.6zM257 132.9c3-.3 4.7-1.2 5.4-1.8-.8-.4-2.6-1.1-5.6-.9-3 .3-4.5 1.2-5.4 1.8 1 .5 2.6 1.2 5.6.9zM265.4 137.5c1.8-1.3 2.4-2.5 2.6-3.2-.7 0-2 .3-3.8 1.6-1.8 1.3-2.3 2.5-2.6 3.2.8-.1 2-.3 3.8-1.6zM262.4 135.2c3-.6 4.5-1.7 5.2-2.3-.8-.3-2.7-.9-5.7-.3-3 .6-4.4 1.7-5.2 2.3 1 .3 2.7.8 5.7.3z"/><path fill="#2E2E2E" d="M262.4 130.5c2.4 1.9 4.2 2.3 5.1 2.4-.3-.9-1.1-2.6-3.5-4.5s-4.1-2.2-5.1-2.4c.4 1 1.1 2.6 3.5 4.5zM254.7 125c1.5 2.5 3 3.5 3.8 3.8 0-.9-.1-2.7-1.6-5.1s-2.9-3.4-3.8-3.8c0 .9.1 2.6 1.6 5.1zM249.3 117c.3 2.9 1.3 4.4 1.9 5 .4-.8 1-2.5.6-5.3-.3-2.9-1.3-4.3-1.9-5-.4.9-1 2.5-.6 5.3zM248.3 108.5c-1 2.4-.9 4.1-.7 4.8.6-.5 1.9-1.5 2.9-3.9s.9-3.9.7-4.8c-.8.5-1.9 1.5-2.9 3.9z"/><g><path fill="#C4C4C4" d="M66.065 167.267l-4.172-4.172 5.445-5.445 4.172 4.172z"/><path fill="#9E9E9E" d="M64.8 160.3l.9 7.4 5.9-5.9-4.2-4.1z"/><path fill="#C4C4C4" d="M34.3 149.2h8.9v5.6h-8.9zM63.7 157.5c-.7.7-.7 1.7 0 2.4l5.5 5.5c.7.7 1.7.7 2.4 0l4-4c.7-.7.7-1.7 0-2.4l-5.5-5.5c-.7-.7-1.7-.7-2.4 0l-4 4zM5.507 161.8l4.172-4.172 5.445 5.444-4.172 4.172z"/><path fill="#9E9E9E" d="M12.3 160.3l-.9 7.4-5.9-5.9 4.2-4.1z"/><path fill="#C4C4C4" d="M13.4 157.5c.7.7.7 1.7 0 2.4l-5.5 5.5c-.7.7-1.7.7-2.4 0l-4-4c-.7-.7-.7-1.7 0-2.4l5.5-5.5c.7-.7 1.7-.7 2.4 0l4 4z"/><path fill="#9E9E9E" d="M34.3 146h8.9v5.8h-8.9z"/><circle fill="#C4C4C4" cx="38.7" cy="190" r="36"/><circle fill="#FFF" cx="38.7" cy="190" r="28.9"/><path fill="#6FB500" d="M38.8 187l20.5 23.6c5.4-5.4 8.8-11.6 8.8-19.8 0-16.4-13.3-29.6-29.6-29.6h.3V187z"/><path fill="#9B9B9B" d="M37.8 209.7c0-.6.5-1 1-1 .6 0 1 .5 1 1v3.7c0 .6-.5 1-1 1-.6 0-1-.5-1-1v-3.7z"/><path opacity=".08" d="M26.3 171.3c11.4-7.6 26.1-6.4 36 2.1-9-12.7-26.5-16.1-39.6-7.4-13.1 8.7-16.8 26.1-8.5 39.3-3.9-12.4.7-26.4 12.1-34z"/><path fill="#C4C4C4" d="M46.7 147.5c0 .9-.8 1.7-1.7 1.7H32.4c-.9 0-1.7-.8-1.7-1.7v-5.8c0-.9.8-1.7 1.7-1.7H45c.9 0 1.7.8 1.7 1.7v5.8z"/><path fill="#9B9B9B" d="M15.3 191.1c-.6 0-1-.5-1-1 0-.6.5-1 1-1H19c.6 0 1 .5 1 1 0 .6-.5 1-1 1h-3.7z"/><path fill="#5A8900" d="M39.8 170.4c0 .6-.5 1-1 1-.6 0-1-.5-1-1v-3.7c0-.6.5-1 1-1 .6 0 1 .5 1 1v3.7zM62.1 188.9c.6 0 1 .5 1 1 0 .6-.5 1-1 1h-3.7c-.6 0-1-.5-1-1 0-.6.5-1 1-1h3.7z"/><path opacity=".7" fill="#9B9B9B" d="M23.1 204.8c.4-.4 1-.4 1.4 0 .4.4.4 1 0 1.4l-1.3 1.3c-.4.4-1 .4-1.4 0-.4-.4-.4-1 0-1.4l1.3-1.3zM21.4 174.3c-.4-.4-.4-1 0-1.4.4-.4 1-.4 1.4 0l1.3 1.3c.4.4.4 1 0 1.4-.4.4-1 .4-1.4 0l-1.3-1.3z"/><path fill="#5A8900" d="M55 175.9c-.4.4-1 .4-1.4 0-.4-.4-.4-1 0-1.4l1.3-1.3c.4-.4 1-.4 1.4 0 .4.4.4 1 0 1.4l-1.3 1.3zM56.2 205.6c.4.4.4 1 0 1.4-.4.4-1 .4-1.4 0l-1.3-1.3c-.4-.4-.4-1 0-1.4.4-.4 1-.4 1.4 0l1.3 1.3z"/><path opacity=".7" fill="#9B9B9B" d="M18.8 198c.5-.2 1.1 0 1.3.5.2.5 0 1.1-.5 1.3l-1.7.8c-.5.2-1.1 0-1.3-.5-.2-.5 0-1.1.5-1.3l1.7-.8zM28.4 169c-.2-.5 0-1.1.5-1.3.5-.2 1.1 0 1.3.5l.8 1.7c.2.5 0 1.1-.5 1.3-.5.2-1.1 0-1.3-.5l-.8-1.7z"/><path fill="#5A8900" d="M59.1 182.8c-.5.2-1.1 0-1.3-.5-.2-.5 0-1.1.5-1.3l1.7-.8c.5-.2 1.1 0 1.3.5.2.5 0 1.1-.5 1.3l-1.7.8z"/><path fill="#9B9B9B" d="M49.4 210.8c.2.5 0 1.1-.5 1.3-.5.2-1.1 0-1.3-.5l-.8-1.7c-.2-.5 0-1.1.5-1.3.5-.2 1.1 0 1.3.5l.8 1.7z"/><path opacity=".7" fill="#9B9B9B" d="M29.9 209.6c.2-.5.8-.8 1.3-.5.5.2.8.8.5 1.3l-.7 1.7c-.2.5-.8.8-1.3.5-.5-.2-.8-.8-.5-1.3l.7-1.7zM16.9 182c-.5-.2-.8-.8-.5-1.3.2-.5.8-.8 1.3-.5l1.7.7c.5.2.8.8.5 1.3-.2.5-.8.8-1.3.5l-1.7-.7z"/><path fill="#5A8900" d="M48.6 170.9c-.2.5-.8.8-1.3.5-.5-.2-.8-.8-.5-1.3l.7-1.7c.2-.5.8-.8 1.3-.5.5.2.8.8.5 1.3l-.7 1.7z"/><path fill="#D33131" d="M55.7 205.6l-12.4-15.3v-.4c-.1-2.5-2.1-4.5-4.7-4.4-2.5.1-4.5 2.1-4.4 4.7.1 2.5 2.1 4.5 4.7 4.4h.3l15.7 11.9c.1.1.2.1.4.1s.3-.1.4-.2c.1-.3.1-.6 0-.8z"/><path fill="#5A8900" d="M60.9 197.9c.5.2.8.8.5 1.3-.2.5-.8.8-1.3.5l-1.7-.7c-.5-.2-.8-.8-.5-1.3.2-.5.8-.8 1.3-.5l1.7.7z"/><circle fill="#FFF" cx="38.8" cy="190" r="1.7"/><path fill="none" stroke="#FFF" stroke-width="2.568" stroke-linecap="round" stroke-linejoin="round" stroke-miterlimit="10" d="M20.1 163.4s-3.8 2.2-6.7 6.2"/><circle fill="#FFF" cx="24.4" cy="160.6" r="1.4"/></g><g fill="#16A8E7"><path d="M311.1 123.9c4.5 0 8.2-3.7 8.2-8.2V98.2c0-4.5-3.7-8.2-8.2-8.2-4.5 0-8.2 3.7-8.2 8.2v17.5c0 4.5 3.7 8.2 8.2 8.2z"/><path d="M323 107.2v8.5c0 6.5-5.3 11.9-11.9 11.9s-11.9-5.3-11.9-11.9v-8.5h-3v8.5c0 7.6 5.8 13.9 13.2 14.8v6.8H303v3h16.2v-3h-6.9v-6.8c7.6-.7 13.6-7 13.6-14.8v-8.5H323z"/></g><g fill="#FFF"><path d="M341.1 123.9c4.5 0 8.2-3.7 8.2-8.2V98.2c0-4.5-3.7-8.2-8.2-8.2-4.5 0-8.2 3.7-8.2 8.2v17.5c0 4.5 3.7 8.2 8.2 8.2z"/><path d="M353 107.2v8.5c0 6.5-5.3 11.9-11.9 11.9s-11.9-5.3-11.9-11.9v-8.5h-3v8.5c0 7.6 5.8 13.9 13.2 14.8v6.8H333v3h16.2v-3h-6.9v-6.8c7.6-.7 13.6-7 13.6-14.8v-8.5H353z"/></g><g fill="#ECEEEC"><path d="M371.1 123.9c4.5 0 8.2-3.7 8.2-8.2V98.2c0-4.5-3.7-8.2-8.2-8.2-4.5 0-8.2 3.7-8.2 8.2v17.5c0 4.5 3.7 8.2 8.2 8.2z"/><path d="M383 107.2v8.5c0 6.5-5.3 11.9-11.9 11.9s-11.9-5.3-11.9-11.9v-8.5h-3v8.5c0 7.6 5.8 13.9 13.2 14.8v6.8H363v3h16.2v-3h-6.9v-6.8c7.6-.7 13.6-7 13.6-14.8v-8.5H383z"/></g><g><g fill="#1CB0F6"><path d="M37.3 17.2v.2c0 1.9-.1 3.1-.3 3.6-.3.8-.7 1.4-1.4 1.8-.6.4-1.3.6-2.2.6-.9 0-1.6-.2-2.2-.6-.6-.4-1-1-1.3-1.8-.3-.7-.4-1.9-.4-3.7V7h-5.3V17.4c.1 2.4.3 4.1.6 5.2.6 1.8 1.6 3.2 3 4.3 1.4 1 3.3 1.5 5.5 1.5 2.1 0 3.8-.4 5.2-1.3 1.4-.9 2.4-2.1 3.1-3.8.5-1.1.8-3.1.8-5.9V7h-5.2v10.2zM21.8 0h-5.2v8.1c-.1 0-.2-.1-.3-.1-1.7-1-3.6-1.5-5.5-1.5-2.7 0-5.1.9-7.2 2.8C1.2 11.5 0 14.2 0 17.4c0 3 1.1 5.6 3.2 7.7 2.1 2.1 4.7 3.2 7.6 3.2 2 0 3.9-.5 5.6-1.4 1.7-1 3-2.3 4-4 .9-1.5 1.3-3.1 1.4-4.8v-.7V0zm-6.9 21.8c-1.1 1.1-2.4 1.7-4.1 1.7-1.6 0-3-.6-4-1.7-1.1-1.1-1.6-2.6-1.6-4.4 0-1.7.5-3.2 1.6-4.3 1.1-1.1 2.4-1.7 4-1.7 1.7 0 3 .6 4.1 1.7 1.1 1.1 1.6 2.6 1.6 4.3 0 1.8-.5 3.3-1.6 4.4zM64.7 12c-1-1.7-2.3-3-4-4-1.7-1-3.6-1.5-5.5-1.5-2.7 0-5.1.9-7.2 2.8-2.4 2.2-3.6 4.8-3.6 8.1 0 3 1.1 5.6 3.2 7.7 2.1 2.1 4.7 3.2 7.6 3.2 2 0 3.9-.5 5.6-1.4 1.7-1 3-2.3 4-4 1-1.7 1.5-3.5 1.5-5.5-.2-1.9-.6-3.7-1.6-5.4zm-5.4 9.8c-1.1 1.1-2.4 1.7-4.1 1.7s-3-.6-4-1.7c-1.1-1.1-1.6-2.6-1.6-4.4 0-1.7.5-3.2 1.6-4.3 1.1-1.1 2.4-1.7 4-1.7 1.7 0 3 .6 4.1 1.7 1.1 1.1 1.6 2.6 1.6 4.3 0 1.8-.6 3.3-1.6 4.4zM84.3 28h5.3V7.9h-5.3V28zm-9-5.4c-.6-.4-1.1-1-1.3-1.8-.2-.6-.3-1.8-.3-3.6V0h-5.2v17.1c.1 2.8.3 4.7.8 5.9.7 1.6 1.7 2.9 3.1 3.8 1.4.9 3.1 1.3 5.2 1.3h4v-4.9h-4.1c-.9 0-1.6-.2-2.2-.6zm34.9-10.8c-.7-1.6-1.7-2.9-3.1-3.8-1.4-.9-3.1-1.3-5.2-1.3-2.3 0-4.1.5-5.5 1.5-1.4 1-2.4 2.4-3 4.3-.3 1-.5 2.8-.6 5.2V28h5.3V18v-.4c0-1.7.1-3 .4-3.7.3-.8.7-1.3 1.3-1.8.6-.4 1.3-.6 2.2-.6.9 0 1.6.2 2.2.6.6.4 1.1 1 1.4 1.8.2.6.3 1.8.3 3.6V28h5.2v-8.8-1.6c-.1-2.7-.4-4.7-.9-5.8zM86.8.4C85.3.4 84 1.7 84 3.2 84 4.7 85.2 6 86.8 6c1.5 0 2.8-1.2 2.8-2.8 0-1.6-1.3-2.8-2.8-2.8zm69.9 11.8c-1-1.7-2.3-3-4-4-1.7-1-3.5-1.4-5.6-1.4-3 0-5.5 1.1-7.6 3.2-2.1 2.1-3.2 4.7-3.2 7.7 0 3.2 1.2 5.9 3.6 8.1 2.1 1.9 4.5 2.8 7.2 2.8 2 0 3.8-.5 5.5-1.5 1.7-1 3.1-2.3 4-4 1-1.7 1.5-3.5 1.5-5.4.1-2-.4-3.8-1.4-5.5zm-3.8 5.5c0 1.8-.5 3.2-1.6 4.3-1.1 1.1-2.4 1.7-4.1 1.7-1.6 0-3-.6-4-1.7-1.1-1.1-1.6-2.6-1.6-4.3 0-1.8.5-3.3 1.6-4.4 1.1-1.1 2.4-1.7 4-1.7s3 .6 4.1 1.7c1.1 1.1 1.6 2.6 1.6 4.4 0-.1 0-.1 0 0zm-18.4-.9c-.1-1.7-.6-3.2-1.4-4.7-1-1.7-2.3-3-3.9-4-1.7-1-3.5-1.4-5.5-1.4-3 0-5.5 1-7.6 3.2-2.1 2.1-3.1 4.7-3.1 7.7 0 3.2 1.2 5.9 3.5 8 2.1 1.9 4.4 2.8 7.1 2.8 1.9 0 3.8-.5 5.5-1.5.1-.1.2-.1.3-.2v2.4c0 1.8-.6 3.2-1.6 4.3-1.1 1.1-2.4 1.7-4 1.7s-2.9-.5-4-1.6l-3.4 3.6.1.1c2.1 1.9 4.5 2.8 7.1 2.8 1.9 0 3.8-.5 5.5-1.5 1.7-1 3-2.3 4-4 1-1.7 1.4-3.5 1.4-5.4V18.2v-.7c.1-.2.1-.5 0-.7zm-5.1.7c0 1.8-.5 3.2-1.6 4.3-1.1 1.1-2.4 1.7-4 1.7s-2.9-.6-4-1.7-1.6-2.5-1.6-4.3c0-1.8.5-3.2 1.6-4.4 1.1-1.1 2.4-1.7 4-1.7s3 .6 4 1.7c1 1.2 1.6 2.6 1.6 4.4z"/></g></g><g><g fill="#FFF"><path d="M197 17.1v.2c0 1.8-.1 3.1-.3 3.6-.3.8-.7 1.4-1.3 1.8-.6.4-1.3.6-2.2.6-.9 0-1.6-.2-2.2-.6-.6-.4-1-1-1.3-1.8-.3-.7-.4-1.9-.4-3.7V7h-5.2V17.3c.1 2.4.3 4.1.6 5.1.6 1.8 1.6 3.2 3 4.2s3.2 1.5 5.5 1.5c2.1 0 3.8-.4 5.2-1.3 1.4-.9 2.4-2.1 3.1-3.7.5-1.1.8-3.1.8-5.8V7H197v10.1zM181.6 0h-5.2v8.1c-.1-.1-.2-.1-.3-.2-1.7-1-3.5-1.5-5.5-1.5-2.7 0-5.1.9-7.2 2.8-2.4 2.1-3.5 4.8-3.5 8 0 3 1 5.6 3.1 7.7 2.1 2.1 4.6 3.2 7.6 3.2 2 0 3.9-.5 5.5-1.4 1.7-1 3-2.3 4-4 .8-1.5 1.3-3.1 1.4-4.7v-.7V0zm-6.8 21.7c-1.1 1.1-2.4 1.7-4.1 1.7-1.6 0-3-.6-4-1.7-1.1-1.1-1.6-2.6-1.6-4.4 0-1.7.5-3.2 1.6-4.3 1.1-1.1 2.4-1.7 4-1.7s3 .6 4.1 1.7c1.1 1.1 1.6 2.5 1.6 4.3 0 1.8-.5 3.3-1.6 4.4zm49.5-9.8c-1-1.7-2.3-3-4-4-1.7-1-3.5-1.5-5.5-1.5-2.7 0-5.1.9-7.2 2.8-2.4 2.1-3.5 4.8-3.5 8 0 3 1 5.6 3.1 7.7 2.1 2.1 4.6 3.2 7.6 3.2 2 0 3.9-.5 5.5-1.4 1.7-1 3-2.3 4-4 1-1.7 1.5-3.5 1.5-5.5-.1-1.8-.6-3.6-1.5-5.3zm-5.4 9.8c-1.1 1.1-2.4 1.7-4.1 1.7-1.6 0-3-.6-4-1.7-1.1-1.1-1.6-2.6-1.6-4.4 0-1.7.5-3.2 1.6-4.3 1.1-1.1 2.4-1.7 4-1.7s3 .6 4.1 1.7c1.1 1.1 1.6 2.5 1.6 4.3 0 1.8-.5 3.3-1.6 4.4zM243.8 27.8h5.2v-20h-5.2v20zm-9-5.4c-.6-.4-1.1-1-1.3-1.8-.2-.6-.3-1.8-.3-3.6V0H228v17c.1 2.8.3 4.7.8 5.8.7 1.6 1.7 2.9 3.1 3.7 1.4.9 3.1 1.3 5.2 1.3h4V23h-4c-.9 0-1.7-.2-2.3-.6zm34.7-10.7c-.7-1.6-1.7-2.9-3.1-3.7-1.4-.9-3.1-1.3-5.2-1.3-2.3 0-4.1.5-5.5 1.5-1.4 1-2.4 2.4-3 4.2-.3 1-.5 2.7-.6 5.1V27.8h5.2v-9.9-.4c0-1.7.1-3 .4-3.7.3-.8.7-1.3 1.3-1.8.6-.4 1.3-.6 2.2-.6.9 0 1.6.2 2.2.6.6.4 1 1 1.3 1.8.2.6.3 1.8.3 3.6V27.7h5.2v-8.8-1.6c.1-2.5-.2-4.5-.7-5.6zM246.3.4c-1.5 0-2.8 1.2-2.8 2.8 0 1.5 1.2 2.8 2.8 2.8 1.5 0 2.8-1.2 2.8-2.8-.1-1.6-1.3-2.8-2.8-2.8zm69.4 11.7c-1-1.7-2.3-3-4-4-1.7-1-3.5-1.4-5.5-1.4-3 0-5.5 1.1-7.6 3.2-2.1 2.1-3.1 4.7-3.1 7.7 0 3.2 1.2 5.9 3.6 8 2.1 1.9 4.5 2.8 7.2 2.8 1.9 0 3.8-.5 5.5-1.5 1.7-1 3-2.3 4-4 1-1.7 1.4-3.5 1.4-5.4 0-1.9-.5-3.7-1.5-5.4zm-3.8 5.4c0 1.8-.5 3.2-1.6 4.3-1.1 1.1-2.4 1.7-4.1 1.7-1.6 0-3-.6-4-1.7-1.1-1.1-1.6-2.5-1.6-4.3 0-1.8.5-3.3 1.6-4.4 1.1-1.1 2.4-1.7 4-1.7s3 .6 4.1 1.7c1.1 1.2 1.7 2.7 1.6 4.4.1 0 0 0 0 0zm-18.2-.8c-.1-1.7-.6-3.2-1.4-4.7-1-1.7-2.3-3-3.9-3.9-1.7-.9-3.5-1.4-5.5-1.4-2.9 0-5.4 1-7.5 3.1-2.1 2.1-3.1 4.6-3.1 7.6 0 3.2 1.2 5.8 3.5 8 2.1 1.9 4.4 2.8 7.1 2.8 1.9 0 3.7-.5 5.4-1.4.1-.1.2-.1.3-.2v2.3c0 1.7-.6 3.2-1.6 4.3-1 1.1-2.4 1.6-4 1.6s-2.9-.5-3.9-1.6l-3.3 3.6.1.1c2.1 1.9 4.4 2.8 7.1 2.8 1.9 0 3.7-.5 5.4-1.4 1.7-1 3-2.3 4-3.9 1-1.7 1.4-3.4 1.4-5.4V18.1v-.7c-.1-.2-.1-.5-.1-.7zm-5.2.7c0 1.7-.5 3.2-1.6 4.3-1.1 1.1-2.4 1.6-4 1.6s-2.9-.6-4-1.7-1.6-2.5-1.6-4.2c0-1.8.5-3.2 1.6-4.3 1-1.1 2.4-1.7 4-1.7s2.9.6 4 1.7 1.6 2.5 1.6 4.3z"/></g></g><g fill="#FFF"><path d="M429.5 50.4c0-1.2 3.3-2 3.3-5.6 0-2.6-2.1-3.7-2.1-3.7l1.8-.1 1.6-1.1h-5.7c-3.7 0-7 1.8-7 5.6 0 4 3.8 4.5 4.7 4.5.5 0 1-.1 1-.1s-.4.4-.4 1.2c0 .5.2 1.1.9 1.8-6.3 0-7.6 3.3-7.6 4.9 0 1.6 1.3 4.1 6.1 4.1s7.6-2.4 7.6-5.6c.1-3-4.2-4.2-4.2-5.9zm-1.9-1.2c-1.5 0-3.6-1.9-3.6-5.1 0-3.2 2.5-3 2.5-3 1.6 0 3.7 1.7 3.7 5.1 0 2-1.1 3-2.6 3zm0 11.6c-2.8 0-5.1-1.3-5.1-3.5s2-3.3 6.1-3.3c0 0 3.1 1.7 3.1 3.7s-1.3 3.1-4.1 3.1zM443 49.1h-2.9v-2.9h-1.5v2.9h-2.9v1.5h2.9v2.9h1.5v-2.9h2.9z"/></g><g fill="#FFF"><path d="M395.5 78.2c0-.9 2.6-1.6 2.6-4.4 0-2-1.6-2.9-1.6-2.9l1.4-.1 1.3-.8h-4.5c-3 0-5.5 1.4-5.5 4.4 0 3.2 3 3.6 3.7 3.6.4 0 .8-.1.8-.1s-.3.3-.3 1c0 .4.1.9.7 1.4-4.9 0-6 2.6-6 3.8s1 3.2 4.8 3.2 6-1.9 6-4.4-3.4-3.4-3.4-4.7zm-1.5-.9c-1.2 0-2.8-1.5-2.8-4s2-2.4 2-2.4c1.2 0 2.9 1.4 2.9 4 0 1.5-.9 2.4-2.1 2.4zm0 9c-2.2 0-4-1-4-2.8 0-1.7 1.6-2.6 4.8-2.6 0 0 2.4 1.3 2.4 2.9s-1 2.5-3.2 2.5zM406.1 77.2h-2.3v-2.3h-1.2v2.3h-2.3v1.2h2.3v2.2h1.2v-2.2h2.3z"/></g><path fill="#DF4A32" d="M376 78.2c0-.9 2.6-1.6 2.6-4.4 0-2-1.6-2.9-1.6-2.9l1.4-.1 1.3-.8h-4.5c-3 0-5.5 1.4-5.5 4.4 0 3.2 3 3.6 3.7 3.6.4 0 .8-.1.8-.1s-.3.3-.3 1c0 .4.1.9.7 1.4-4.9 0-6 2.6-6 3.8s1 3.2 4.8 3.2 6-1.9 6-4.4-3.4-3.4-3.4-4.7zm-1.5-.9c-1.2 0-2.8-1.5-2.8-4s2-2.4 2-2.4c1.2 0 2.9 1.4 2.9 4 0 1.5-.9 2.4-2.1 2.4zm0 9c-2.2 0-4-1-4-2.8 0-1.7 1.6-2.6 4.8-2.6 0 0 2.4 1.3 2.4 2.9s-1 2.5-3.2 2.5zM386.6 77.4h-2.3v-2.3h-1.2v2.3h-2.3v1.2h2.3v2.3h1.2v-2.3h2.3z"/><path fill="#3B5999" d="M353.5 78.5l.4-2.8h-2.8V74c0-.8.2-1.4 1.4-1.4h1.5v-2.5c-.3 0-1.1-.1-2.1-.1-2.1 0-3.6 1.3-3.6 3.7v2.1h-2.4v2.8h2.4v7.1h2.9v-7.1h2.3z"/><g fill="#FFF"><path d="M329.1 79.5c0 .3-.2.5-.5.5h-3c-.3 0-.5-.2-.5-.5v-9c0-.3.2-.5.5-.5h3c.3 0 .5.2.5.5v9zM341.1 79.5c0 .3-.2.5-.5.5h-3c-.3 0-.5-.2-.5-.5v-9c0-.3.2-.5.5-.5h3c.3 0 .5.2.5.5v9zM322.1 73h2v3.9h-2zM342.1 73h2v3.9h-2zM330.1 74h5.9v2h-5.9z"/></g><path fill="#FFF" d="M454.8 70.1l1.9 3.9 4.3.7-3.1 3 .7 4.3-3.8-2-3.9 2 .7-4.3-3.1-3 4.3-.7z"/><g><defs><path id="a" d="M63.2 70h14.6v11.8H63.2z"/></defs><clipPath id="b"><use xlink:href="#a" overflow="visible"/></clipPath><g clip-path="url(#b)"><defs><path id="c" d="M63.2 70h14.6v11.9H63.2z"/></defs><clipPath id="d"><use xlink:href="#c" overflow="visible"/></clipPath><path clip-path="url(#d)" fill="#FFF" d="M67.8 81.8c-1.7 0-3.3-.5-4.6-1.3h.7c1.4 0 2.7-.5 3.7-1.3-1.3 0-2.4-.9-2.8-2.1.2 0 .4.1.6.1.3 0 .5 0 .8-.1-1.4-.3-2.4-1.5-2.4-2.9.4.2.9.4 1.4.4-.8-.5-1.3-1.5-1.3-2.5 0-.5.1-1.1.4-1.5 1.5 1.8 3.7 3 6.2 3.1-.1-.2-.1-.4-.1-.7 0-1.7 1.3-3 3-3 .9 0 1.6.4 2.2.9.7-.1 1.3-.4 1.9-.7-.2.7-.7 1.3-1.3 1.7.6-.1 1.2-.2 1.7-.5-.4.6-.9 1.1-1.5 1.5v.4c-.1 4-3.1 8.5-8.6 8.5"/></g></g><path fill="#FFF" d="M62.4 78.5l.4-2.8H60V74c0-.8.2-1.4 1.4-1.4h1.5v-2.5c-.3 0-1.1-.1-2.1-.1-2.1 0-3.6 1.3-3.6 3.7v2.1h-2.4v2.8h2.4v7.1H60v-7.1h2.4zM468.1 69.9s-1.2 2.4-5.9 3.1c0 3.4 2.5 8.6 5.8 10 .1-5.1.1-13.1.1-13.1zM469 69.9s1.2 2.4 5.9 3.1c0 3.4-2.5 8.6-5.8 10-.1-5.1-.1-13.1-.1-13.1z"/><g fill="#CBCBCB"><path d="M445.5 84.4c.9-.8 1.4-1.9 1.4-3.1 0-2.4-2.1-4.4-4.8-4.4-2.6 0-4.8 2-4.8 4.4 0 2.4 2.1 4.4 4.8 4.4.3 0 .6 0 .9-.1l3.2 2.6-.7-3.8z"/><path d="M435.9 81.2c0-3.2 2.8-5.8 6.2-5.8h.6c-.5-3.1-3.4-5.4-6.8-5.4-3.8 0-6.9 2.9-6.9 6.4 0 1.8.8 3.4 2.1 4.6l-1 3.5 3.4-2.2c.4.2 1.2.5 2.4.5h.2c-.1-.6-.2-1.1-.2-1.6z"/></g><path d="M526.5 70.5c-.8-.8-2-.8-2.8 0l-6.2 5.8-1.9-1.9c-.8-.8-2-.8-2.8 0s-.8 2 0 2.8l3.1 3.1c.2.2.4.3.7.4.7.4 1.7.2 2.3-.4l7.6-7.1c.8-.6.8-1.9 0-2.7z"/><path fill="#FFF" d="M596.8 78.6l-1.8 1.8-1.8-1.8c-.5-.5-1.2-.5-1.6 0-.5.5-.5 1.2 0 1.6l1.8 1.8-1.8 1.8c-.5.5-.5 1.2 0 1.6.5.5 1.2.5 1.6 0l1.8-1.8 1.8 1.8c.5.5 1.2.5 1.6 0 .5-.5.5-1.2 0-1.6l-1.8-1.8 1.8-1.8c.5-.5.5-1.2 0-1.6-.4-.5-1.1-.5-1.6 0zM599.3 70.7c-.5-.5-1.2-.5-1.6 0l-3.6 3.4L593 73c-.5-.5-1.2-.5-1.6 0-.5.5-.5 1.2 0 1.6l1.8 1.8c.1.1.2.2.4.3.4.2 1 .1 1.3-.2l4.4-4.1c.5-.6.5-1.3 0-1.7zM616 70.5c-.5.5-.5 1.4 0 2l7.5 7.5-7.6 7.6c-.5.5-.5 1.4 0 2 .5.5 1.4.5 2 0l8.2-8.2c.1-.1.3-.1.4-.3.5-.5.5-1.4 0-2l-8.5-8.5c-.6-.7-1.5-.7-2-.1zM633.1 70c-2.6 0-4.7 2.1-4.7 4.7 0 1 .3 2 .9 2.8l3.7 6.7 3.8-6.7c.6-.8.9-1.7.9-2.8.1-2.6-2-4.7-4.6-4.7zm0 6.4c-.9 0-1.7-.8-1.7-1.7 0-.9.8-1.7 1.7-1.7s1.7.8 1.7 1.7c0 .9-.7 1.7-1.7 1.7z"/><path d="M655.4 78.2c0-.9 2.6-1.6 2.6-4.4 0-2-1.6-2.9-1.6-2.9l1.4-.1 1.3-.8h-4.5c-3 0-5.5 1.4-5.5 4.4 0 3.2 3 3.6 3.7 3.6.4 0 .8-.1.8-.1s-.3.3-.3 1c0 .4.1.9.7 1.4-4.9 0-6 2.6-6 3.8 0 1.2 1 3.2 4.8 3.2s6-1.9 6-4.4c-.1-2.5-3.4-3.4-3.4-4.7zm-1.5-.9c-1.2 0-2.8-1.5-2.8-4s2-2.4 2-2.4c1.2 0 2.9 1.4 2.9 4-.1 1.6-1 2.4-2.1 2.4zm0 9c-2.2 0-4-1-4-2.8 0-1.7 1.6-2.6 4.8-2.6 0 0 2.4 1.3 2.4 2.9s-1 2.5-3.2 2.5zM666 77.2h-2.3v-2.3h-1.2v2.3h-2.3v1.2h2.3v2.3h1.2v-2.3h2.3z"/><path fill="#FFF" d="M408 90c-9.4 0-17 7.6-17 17s7.6 17 17 17 17-7.6 17-17-7.6-17-17-17zm-9.6 19.5h-2.5v-4.4h2.5v4.4zm5.2 2.7c0 .3-.2.6-.6.6h-3.3c-.3 0-.6-.2-.6-.6v-10.1c0-.3.2-.6.6-.6h3.3c.3 0 .6.2.6.6v10.1zm8.2-3.8h-7.3v-2.2h7.3v2.2zm5.2 3.8c0 .3-.2.6-.6.6h-3.3c-.3 0-.6-.2-.6-.6v-10.1c0-.3.2-.6.6-.6h3.3c.3 0 .6.2.6.6v10.1zm.8-2.7v-4.4h2.5v4.4h-2.5z"/><path d="M646.5 79l.4-2.8h-2.8v-1.8c0-.8.2-1.4 1.4-1.4h1.5v-2.5c-.3 0-1.1-.1-2.1-.1-2.1 0-3.6 1.3-3.6 3.7v2.1h-2.4V79h2.4v7.1h2.9V79h2.3z"/><path fill="#1CAFF6" d="M674.1 77.9l-5 5c-.6.6-.6 1.6 0 2.3.6.6 1.6.6 2.3 0l6.1-6.1c.3-.3.5-.7.5-1.1 0-.4-.2-.8-.5-1.1l-6.1-6.1c-.6-.6-1.6-.6-2.3 0-.6.6-.6 1.6 0 2.3l5 4.8z"/><path fill="#CBCBCB" d="M684.1 77.9l-5 5c-.6.6-.6 1.6 0 2.3.6.6 1.6.6 2.3 0l6.1-6.1c.3-.3.5-.7.5-1.1 0-.4-.2-.8-.5-1.1l-6.1-6.1c-.6-.6-1.6-.6-2.3 0-.6.6-.6 1.6 0 2.3l5 4.8z"/><path fill="#FFF" d="M694.1 77.9l-5 5c-.6.6-.6 1.6 0 2.3.6.6 1.6.6 2.3 0l6.1-6.1c.3-.3.5-.7.5-1.1 0-.4-.2-.8-.5-1.1l-6.1-6.1c-.6-.6-1.6-.6-2.3 0-.6.6-.6 1.6 0 2.3l5 4.8z"/><g><g><path fill="#D33131" d="M722.6 70l6.3 3.7v10.6l-6.3 3.7-6.4-3.7V73.7z"/></g><path fill="#F93D3D" d="M722.6 70l-6.4 3.7 2.7 2.2 3.7-1.2z"/><path fill="#AF2828" d="M722.6 88l6.3-3.7-2.6-2.3-3.7 1.3z"/><path fill="#E83838" d="M722.6 73.8l3.7 2.1v6.2l-3.7 2.1-3.7-2.1v-6.2z"/><g fill="#FFF"><path d="M719.3 77.6s-.1 0 0 0c-.4-.9-1.1-1.6-1.9-1.9v-.1-.1c.8-.3 1.5-1 1.8-1.9h.2c.3.8 1 1.5 1.8 1.9v.2c-.9.4-1.5 1.1-1.9 1.9z"/><path d="M719.3 73.8c.3.9 1 1.5 1.9 1.9-.8.4-1.5 1-1.9 1.9-.3-.9-1-1.5-1.9-1.9.9-.4 1.5-1 1.9-1.9m0-.1s-.1 0-.1.1c-.3.8-1 1.5-1.8 1.8l-.1.1s0 .1.1.1c.8.3 1.5 1 1.8 1.8l.1.1s.1 0 .1-.1c.3-.8 1-1.5 1.8-1.8l.1-.1s0-.1-.1-.1c-.8-.3-1.5-1-1.8-1.8 0-.1-.1-.1-.1-.1z"/></g><path opacity=".3" fill="#F77F7F" d="M724 74.6l-5.1 5.1v2.4l.6.3 6.6-6.6zM721.3 83.5l5-5v-1.7l-6.1 6.1z"/></g><g fill="#CBCBCB"><path d="M767.5 71.5v8h-8.9v-8h8.9m1-1.5h-10.9c-.3 0-.5.2-.5.5v10c0 .3.2.5.5.5h10.9c.3 0 .5-.2.5-.5v-10c0-.3-.2-.5-.5-.5z"/><path d="M759.6 72.8h1.8V74h-1.8zM764.6 72.8h1.8V74h-1.8zM762.1 72.8h1.8V74h-1.8zM759.6 76.8h1.8V78h-1.8zM764.6 76.8h1.8V78h-1.8zM762.1 76.8h1.8V78h-1.8zM759.6 74.8h1.8V76h-1.8zM764.6 74.8h1.8V76h-1.8zM762.1 74.8h1.8V76h-1.8z"/></g><path fill="#CBCBCB" d="M750 75.1v-4.2h-2.1v4.2h-3.1l4.2 4.1 4.2-4.1zM743 81.1h12V83h-12z"/><g><path d="M607.5 72c3.1 0 5.6 2.5 5.6 5.6 0 3.1-2.5 5.6-5.6 5.6-3.1 0-5.6-2.5-5.6-5.6 0-3.1 2.5-5.6 5.6-5.6m0-2c-4.2 0-7.6 3.4-7.6 7.6s3.4 7.6 7.6 7.6 7.6-3.4 7.6-7.6-3.4-7.6-7.6-7.6z"/><path d="M611.1 79.6l-3.1-2.2v-3.7h-1.4v4.5l3.6 2.6z"/></g><g fill="#FFF"><path d="M707.5 72c3.1 0 5.6 2.5 5.6 5.6 0 3.1-2.5 5.6-5.6 5.6-3.1 0-5.6-2.5-5.6-5.6 0-3.1 2.5-5.6 5.6-5.6m0-2c-4.2 0-7.6 3.4-7.6 7.6s3.4 7.6 7.6 7.6 7.6-3.4 7.6-7.6-3.4-7.6-7.6-7.6z"/><path d="M711.1 79.6l-3.1-2.2v-3.7h-1.4v4.5l3.6 2.6z"/></g><path fill="#FFF" d="M557.3 71v-1h-4.1v1h-3.9v1.1h12V71zM549.3 73l2 12h8l2-12h-12zm4.3 10.5c-.3 0-.5-.2-.5-.4l-1-8.5c0-.3.2-.5.4-.5.3 0 .5.2.5.4l1 8.5c.1.2-.1.5-.4.5zm3.9-.4c0 .3-.3.5-.5.4-.3 0-.5-.3-.4-.5l1-8.5c0-.3.3-.5.5-.4.3 0 .5.3.4.5l-1 8.5z"/><path d="M545.1 71v-1h-4.2v1H537v1.1h12V71zM537.1 73l2 12h8l2-12h-12zm4.2 10.5c-.3 0-.5-.2-.5-.4l-1-8.5c0-.3.2-.5.4-.5.3 0 .5.2.5.4l1 8.5c.1.2-.1.5-.4.5zm3.9-.4c0 .3-.3.5-.5.4-.3 0-.5-.3-.4-.5l1-8.5c0-.3.3-.5.5-.4.3 0 .5.3.4.5l-1 8.5z"/><path fill="#FFF" d="M532.6 77.3c3.9-2.2 3.4-5.1 3.4-5.1h-7c0 1.5.5 3.3 3.3 5.1-3.9 2.2-3.4 5.1-3.4 5.1h7c0-1.6-.4-3.4-3.3-5.1zM528 70.6h8.9v1.1H528zM528 83.1h8.9v1.1H528z"/><path fill="#CBCBCB" d="M740.7 72.1c-.5-.5-1.1-.8-1.8-.8s-1.3.3-1.8.8l-1.1 1.1c-.5.5-.8 1.1-.8 1.8 0 .5.1.9.4 1.3l-.2.2c-.4-.2-.8-.3-1.2-.3-.7 0-1.3.3-1.8.8l-1.1 1.1c-.5.5-.8 1.1-.8 1.8s.3 1.3.8 1.8 1.1.8 1.8.8 1.3-.3 1.8-.8l1.1-1.1c.5-.5.8-1.1.8-1.8 0-.4-.1-.8-.3-1.2l.3-.3c.3.2.7.3 1.1.3.7 0 1.3-.3 1.8-.8l1.1-1.1c.5-.5.8-1.1.8-1.8s-.4-1.3-.9-1.8zm-5.6 7.6l-1.1 1.1c-.5.5-1.4.5-1.9 0-.3-.3-.4-.6-.4-1s.1-.7.4-1l1.1-1.1c.3-.3.6-.4 1-.4h.3l-1.2 1.2c-.3.3-.3.7 0 1l.1.1c.3.3.7.3 1 0l1.2-1.2c-.1.6-.2 1-.5 1.3zm4.7-4.8l-1.1 1.1c-.3.3-.7.4-1 .4l1.2-1.2c.3-.3.3-.7 0-1l-.1-.1c-.3-.3-.7-.3-1 0l-1.3 1.3c-.1-.5 0-1 .3-1.3l1.1-1.1c.3-.3.6-.4 1-.4s.7.1 1 .4c.3.3.4.6.4 1s-.3.6-.5.9z"/><g fill="#FFF"><path d="M502 78h4v8.1h-4zM502 70h4v1.1h-4zM507.1 75.8c.4.8 1.5 1.2 1.5 1.2h2.4v-4.9h-1.9c-1 0-2 1-2 1l-.1-1h-5.3c-3.6 0-4.5 4.7-4.5 4.7 1.1-.8 1.6-1.2 3.2-1.2s1.7.5 1.7.8v.6h4l.5-1.2h.5z"/></g><path fill="#FFF" stroke="#231F20" stroke-width="3" stroke-miterlimit="10" stroke-opacity=".08" d="M82.3 93C70 93 60 101.2 60 111.3c0 6.1 3.6 11.4 9.1 14.8v.2c0 6.6-8 8.4-2.4 8.4 5.2 0 10-3.6 11.1-5.4 1.5.2 3 .4 4.5.4 12.3 0 22.3-8.2 22.3-18.3.1-10.3-9.9-18.4-22.3-18.4z"/><path fill="#FFF" d="M600 41c-6.6 0-12 5.4-12 12s5.4 12 12 12 12-5.4 12-12-5.4-12-12-12zm5.5 13.9h-3.3v3.3c0 1.2-.9 2.1-2.1 2.1s-2.1-.9-2.1-2.1v-3.3h-3.3c-1.2 0-2.1-.9-2.1-2.1 0-1.2.9-2.1 2.1-2.1h3.3v-3.3c0-1.2.9-2.1 2.1-2.1s2.1.9 2.1 2.1v3.3h3.3c1.2 0 2.1.9 2.1 2.1 0 1.2-1 2.1-2.1 2.1z"/><g fill="#E2E2E2"><path d="M775 80c-1.4-.1-2.4-1.3-2.4-2.7 0-1.5 1.2-2.7 2.7-2.7h1.5v-2.5h-1.5c-2.9 0-5.2 2.3-5.2 5.2 0 2.8 2.2 5.1 5 5.2v2.3l3.6-3.6-3.6-3.6V80zM781.8 72.1h-.3v-2.2l-3.6 3.6 3.6 3.6v-2.4h.3c1.5 0 2.7 1.2 2.7 2.7 0 1.5-1.2 2.7-2.7 2.7h-1.9v2.5h1.9c2.9 0 5.2-2.3 5.2-5.2 0-3-2.3-5.3-5.2-5.3z"/></g><path d="M794.4 81.4c-1.6 0-3.1-.5-4.4-1.3h.7c1.3 0 2.6-.5 3.6-1.2-1.3 0-2.3-.9-2.7-2 .2 0 .4.1.5.1.3 0 .5 0 .8-.1-1.3-.3-2.3-1.4-2.3-2.8.4.2.8.3 1.3.4-.8-.5-1.3-1.4-1.3-2.4 0-.5.1-1 .4-1.4 1.4 1.7 3.5 2.9 5.9 3 0-.2-.1-.4-.1-.7 0-1.6 1.3-2.9 2.9-2.9.8 0 1.6.3 2.1.9.7-.1 1.3-.4 1.8-.7-.2.7-.7 1.2-1.3 1.6.6-.1 1.1-.2 1.7-.5-.4.6-.9 1.1-1.4 1.5v.4c0 3.7-2.9 8.1-8.2 8.1"/><path fill="#93CC17" d="M707.2 114.2l-7-24-23.6 8.3 8.9 4.6c-8 12.1-21 19-33.6 18.5 16.6 8.4 36.5 3.2 46.9-11.6l8.4 4.2z"/><path fill="none" stroke="#A5D20C" stroke-width="3" stroke-miterlimit="10" d="M254.4 203.2c-14 0-25.3-11.3-25.3-25.3s11.3-25.3 25.3-25.3 25.3 11.3 25.3 25.3"/><path fill="none" stroke="#D6D6D6" stroke-width="3" stroke-miterlimit="10" d="M314.4 203.2c-14 0-25.3-11.3-25.3-25.3s11.3-25.3 25.3-25.3 25.3 11.3 25.3 25.3"/><path fill="none" stroke="#BABABA" stroke-width="2" stroke-miterlimit="10" d="M361 166.8c0-2.2.8-3.5 2.2-4.9l-.1.1c.9-1.1 1.5-2.5 1.5-4.1 0-3.6-2.8-6.5-6.4-6.5-3.6 0-6.5 2.8-6.5 6.4 0 1.8.7 3.5 1.9 4.7 1 1.2 1.5 2.2 1.5 4.2M354.1 168.8h7.6M355.1 171.9h5.6M389.7 154.5l-15.6 15.6M374.1 154.5l15.6 15.6"/><circle fill="#93CC17" cx="485.3" cy="186.6" r="37.2"/><path fill="#FFB094" d="M466.7 216.7c.4-.8 1.1-1.3 2.1-1.2 3 .4 5.5 2.3 8.1 3.7h3.3c.4-1.1 1.1-2 2.4-2.3 1.4-.3 2.9 0 4.3.4 2.5-1.2 5.5-1.9 7.9-1.8.4 0 .7.1 1 .3.4.1.8.1 1.2.2 1.7-.5 3.4-.9 5.3-.9.4 0 .7.1 1 .2.4-.4.9-.7 1.5-.7v-34c0-10.7-8.7-19.4-19.4-19.4s-19.4 8.7-19.4 19.4v35.5c.3.2.5.4.7.6z"/><path fill="#FFF" d="M509 191.4l-24 7.6-24-7.6h-12.7c.1.5.1.9.2 1.3l.1.1.6.6c.7.7.9 1.5.7 2.3 2.7 6.9 6.9 12.8 12 17.9 2 1.4 4 3 6 4.5.8.3 1.5.6 2.3.8h.6c10.8 2.1 21.5-.7 30.9-6.1 6.8-3.9 16.2-9.7 17.6-18.1.2-1.3 1.4-1.9 2.5-1.8.1-.5.2-1 .2-1.6h-13z"/><path fill="#0AF" d="M522.2 191.7L485 203.3l-36.6-11.7c2.5 18.2 18.1 32.2 36.9 32.2 18.9 0 34.4-14 36.9-32.1z"/><path opacity=".19" d="M485.3 223.8c18.8 0 34.4-14 36.9-32.1L485 203.3v20.5h.3z"/><path fill="#88C11A" d="M505.4 207.3c-2 1.5-4.8 1.2-6.3-.8s-1.2-4.8.8-6.3"/><path fill="#774335" d="M505.4 203h1.5v6.2h-1.5z"/><circle fill="#934928" cx="485.2" cy="160.1" r="8.2"/><path fill="#AD582D" d="M485.4 159.6c-11 0-20.1 8.6-20.9 19.3h.3c8.4 0 15.8-4 20.4-10.3 4.6 6.2 12.1 10.3 20.4 10.3h.7c-.8-10.8-9.9-19.3-20.9-19.3z"/><path fill="#CC2F2F" d="M505.9 207.3c-2.8 0-13.2-4.8-11.8 7.9.3 2.5 1.2 4.9 2.5 6.8 8-2.5 14.9-7.7 19.5-14.5-2.8-2.3-8.2-.2-10.2-.2z"/><circle opacity=".7" fill="#FFF" cx="499.5" cy="211.7" r="2.2"/><circle opacity=".28" fill="#FFF" cx="494" cy="185.6" r="6"/><circle opacity=".28" fill="#FFF" cx="476.1" cy="185.6" r="6"/><path opacity=".39" fill="#FFF" d="M476.1 179.5c-3.3 0-6 2.7-6 6 0 1.8.8 3.3 2 4.4l8.5-8.5c-1.2-1.1-2.7-1.9-4.5-1.9zM494 179.5c-3.3 0-6 2.7-6 6 0 1.8.8 3.3 2 4.4l8.5-8.5c-1.1-1.1-2.7-1.9-4.5-1.9z"/><path fill="#7F3F22" d="M504.8 184.9h-3.9c-.4-3.5-3.3-6.3-6.9-6.3-3.2 0-5.9 2.2-6.7 5.1-.6-.5-1.4-.8-2.2-.8-.8 0-1.6.3-2.2.8-.8-3-3.5-5.1-6.7-5.1-3.6 0-6.6 2.7-6.9 6.3H466v1.4h3.2c.4 3.5 3.3 6.3 6.9 6.3 3.6 0 6.5-2.7 6.9-6.2 0-1.1.9-2 2-2s2 .9 2 2c.4 3.5 3.3 6.2 6.9 6.2 3.6 0 6.6-2.7 6.9-6.3h3.9v-1.4zm-28.6 6.2c-3.1 0-5.5-2.5-5.5-5.5 0-3.1 2.5-5.5 5.5-5.5 3.1 0 5.5 2.5 5.5 5.5V186.2c-.3 2.8-2.7 4.9-5.5 4.9zm17.8 0c-2.9 0-5.2-2.2-5.5-5v-.2-.4c0-3.1 2.5-5.5 5.5-5.5 3.1 0 5.5 2.5 5.5 5.5 0 3.1-2.4 5.6-5.5 5.6z"/><path fill="#D6D6D6" d="M324.7 174.3h-7.3v-12.2l-11.9 17.7h7.3V192z"/><path fill="#A5D20C" d="M264.7 174.3h-7.3v-12.2l-11.9 17.7h7.3V192z"/><path opacity=".65" fill="#7AC70C" d="M410.2 195.2c0-6.4-6.4-11.6-14.4-11.6s-14.4 5.2-14.4 11.6c0 4.9 3.8 9.1 9.1 10.8-.9 1.6-2.2 3-3.6 4.2.5 0 1 0 1.6-.1 3.2-.3 6-1.5 8.3-3.3 7.5-.4 13.4-5.4 13.4-11.6z"/><path opacity=".35" fill="#EC0A1B" d="M379.2 195.2c0-6.4-6.4-11.6-14.4-11.6s-14.4 5.2-14.4 11.6c0 4.9 3.8 9.1 9.1 10.8-.9 1.6-2.2 3-3.6 4.2.5 0 1 0 1.6-.1 3.2-.3 6-1.5 8.3-3.3 7.5-.4 13.4-5.4 13.4-11.6zM396.8 152.6h2.1v21.8h-2.1zM406.4 155.6h8.7v13.8h-8.7z"/><path opacity=".35" fill="#EC0A1B" d="M405.6 154.8h3.8v-2.2h-8.7v13.9h4.9z"/><path opacity=".65" fill="#7AC70C" d="M419.8 152.6h2.1v21.8h-2.1zM429.4 155.6h8.7v13.8h-8.7z"/><path opacity=".65" fill="#7AC70C" d="M428.6 154.8h3.8v-2.2h-8.7v13.9h4.9z"/><path opacity=".8" fill="#FFF" d="M544.1 149.2c-9.5 0-17.3 7.7-17.3 17.3 0 9.5 7.7 17.3 17.3 17.3 9.5 0 17.3-7.7 17.3-17.3-.1-9.6-7.8-17.3-17.3-17.3zm2.5 28.1h-5.5v-2h5.5v2zm1.1-3H540v-2h7.7v2zm2.2-7.2c-1.1 1.1-1.9 2.2-1.9 4.2h-2c0-2.2.7-3.8 2.3-5.4.8-1 1.2-2.2 1.2-3.4 0-3-2.4-5.5-5.4-5.5-1.4 0-2.8.5-3.9 1.6-1 1-1.6 2.4-1.6 3.8 0 1.5.6 2.9 1.6 3.9l.1.1c1.1 1.4 1.7 2.6 1.7 4.9h-2c0-1.6-.4-2.4-1.3-3.6-1.4-1.4-2.2-3.3-2.2-5.3s.8-3.9 2.2-5.3c1.4-1.4 3.3-2.2 5.3-2.1 2 0 3.9.8 5.3 2.2 1.4 1.4 2.2 3.3 2.1 5.3.1 1.6-.5 3.3-1.5 4.6z"/><path fill="#B7B7B7" d="M539.5 90.5h35v35h-35zM576.5 90.5h35v35h-35zM613.5 90.5h35v35h-35z"/><path fill="#FFF" d="M562.3 97.4s-1.5-.3-2.9-.1-4 1.1-4 4.7v3h-2.7v3.6h2.7V119h3.4v-10.4h3.3l.2-3.6h-3.5v-2.6c0-.8 0-1.6 2.1-1.6h1.2l.2-3.4zM586.3 103.9h3.7v11.8h-3.7z"/><circle fill="#FFF" cx="588.1" cy="100.2" r="2.1"/><path fill="#FFF" d="M592.1 103.9h3.7v11.8h-3.7z"/><path fill="#FFF" d="M599.4 103.6c2.2 0 4.1 1.8 4.1 5.2v6.9h-3.7v-6.4s.1-2.6-2-2.6-1.9 2.6-1.9 3.4c0 .9-1.4-.9-1.4-.9l1.2-3.1c-.1 0 .6-2.5 3.7-2.5zM461.3 40.4s-1.5-.3-2.9-.1-4 1.1-4 4.7v3h-2.7v3.6h2.7V62h3.4V51.6h3.3l.2-3.6h-3.5v-2.6c0-.8 0-1.6 2.1-1.6h1.2l.2-3.4z"/><path fill="#F6AB00" d="M218.4 162.7s0-6.3-.9-10.6c-28.4-4.3-37.5-11.6-38.8-12.7 0-.1-.2-.1-.2 0-1.2 1.1-10.4 8.4-38.8 12.7-.9 4.2-.9 10.6-.9 10.6s-2.1 40 39.7 60.9c41.9-21 39.9-60.9 39.9-60.9z"/><path fill="#F6BB03" d="M178.6 223.6v-84.3s-.1 0-.1.1c-1.2 1.1-10.4 8.4-38.8 12.7-.9 4.2-.9 10.6-.9 10.6s-2 39.9 39.8 60.9z"/><path fill="#5FA8DC" d="M359.2 81.6c-1.6 0-3.1-.5-4.3-1.3h.7c1.3 0 2.5-.4 3.5-1.2-1.2 0-2.3-.8-2.6-1.9.2 0 .3.1.5.1.3 0 .5 0 .7-.1-1.3-.3-2.3-1.4-2.3-2.8.4.2.8.3 1.3.4-.8-.5-1.2-1.4-1.2-2.3 0-.5.1-1 .4-1.4 1.4 1.7 3.5 2.8 5.8 2.9 0-.2-.1-.4-.1-.6 0-1.5 1.3-2.8 2.8-2.8.8 0 1.5.3 2 .9.6-.1 1.2-.4 1.8-.7-.2.7-.7 1.2-1.2 1.6.6-.1 1.1-.2 1.6-.4-.4.6-.9 1.1-1.4 1.5v.4c-.1 3.4-2.9 7.7-8 7.7"/><g><path fill="#1CB0F6" d="M510.4 119.5c.8 1 2.2 1.6 3.6 1.4 1.5-.2 2.7-1.1 3.2-2.3-.8-1-2.2-1.6-3.6-1.4s-2.7 1.1-3.2 2.3zM505.2 114c.4 1.2 1.4 2.3 2.8 2.7s2.9 0 3.8-.9c-.4-1.2-1.4-2.3-2.8-2.7-1.5-.4-2.9 0-3.8.9zM503.6 105.9c-.5 1.2-.3 2.7.6 3.9.9 1.2 2.3 1.8 3.5 1.6.5-1.2.3-2.7-.6-3.9-.8-1.2-2.2-1.7-3.5-1.6zM530.3 119.5c-.8 1-2.2 1.6-3.6 1.4s-2.7-1.1-3.2-2.3c.8-1 2.2-1.6 3.6-1.4 1.5.2 2.7 1.1 3.2 2.3zM535.6 114c-.4 1.2-1.4 2.3-2.8 2.7s-2.9 0-3.8-.9c.4-1.2 1.4-2.3 2.8-2.7 1.5-.4 2.9 0 3.8.9zM537.1 105.9c.5 1.2.3 2.7-.6 3.9-.9 1.2-2.3 1.8-3.5 1.6-.5-1.2-.3-2.7.6-3.9s2.2-1.7 3.5-1.6z"/><g><path fill="#1CB0F6" d="M505.2 114c.4 1.2 1.4 2.3 2.8 2.7s2.9 0 3.8-.9c-.4-1.2-1.4-2.3-2.8-2.7-1.5-.4-2.9 0-3.8.9z"/></g><g><path fill="#1CB0F6" d="M503.6 105.9c-.5 1.2-.3 2.7.6 3.9.9 1.2 2.3 1.8 3.5 1.6.5-1.2.3-2.7-.6-3.9-.8-1.2-2.2-1.7-3.5-1.6z"/></g><g><path fill="#1CB0F6" d="M537.1 105.9c.5 1.2.3 2.7-.6 3.9-.9 1.2-2.3 1.8-3.5 1.6-.5-1.2-.3-2.7.6-3.9s2.2-1.7 3.5-1.6z"/></g><path fill="#1CB0F6" d="M509.2 94v11.2c0 6.1 5 11.1 11.1 11.1s11.1-5 11.1-11.1V94h-22.2zm15.4 11.8c.3-.5.7-.8 1.2-.7.5.2.8.7.7 1.2-.8 2.5-3.1 4.2-5.7 4.2-3.3 0-6-2.7-6-6 0-1.1.3-2.2.9-3.2.3-.5.9-.6 1.4-.3.5.3.6.9.3 1.4-.4.6-.6 1.4-.6 2.1 0 2.2 1.8 4 4 4h.6v-8.3h-.8v5.1c0 .1 0 .2-.1.3l-1.1 1.1c-.1.1-.2.1-.3.1h-.2c-.2-.1-.3-.2-.3-.4v-6.2h-2.1c-.7 0-1.2.4-1.5 1-.2.4-.5.6-.9.6-.1 0-.3 0-.4-.1-.5-.2-.8-.8-.5-1.3.6-1.4 1.9-2.2 3.3-2.2h9c.6 0 1 .4 1 1s-.4 1-1 1h-2.2v8.1c.2-.7.5-1.2 1.3-2.5z"/></g><g><path fill="#FFF" d="M622.9 117.6c.6.8 1.8 1.3 2.9 1.1s2.2-.9 2.6-1.8c-.6-.8-1.8-1.3-2.9-1.1-1.2.1-2.2.9-2.6 1.8zM618.7 113.2c.3 1 1.1 1.9 2.3 2.2 1.2.3 2.3 0 3.1-.7-.3-1-1.1-1.9-2.3-2.2-1.2-.3-2.4 0-3.1.7zM617.4 106.6c-.4 1-.3 2.2.5 3.1s1.8 1.4 2.9 1.3c.4-1 .3-2.2-.5-3.1-.7-.9-1.8-1.4-2.9-1.3zM639.1 117.7c-.6.8-1.8 1.3-2.9 1.1s-2.2-.9-2.6-1.8c.6-.8 1.8-1.3 2.9-1.1s2.2.8 2.6 1.8zM643.3 113.2c-.3 1-1.1 1.9-2.3 2.2-1.2.3-2.3 0-3.1-.7.3-1 1.1-1.9 2.3-2.2 1.2-.3 2.4 0 3.1.7zM644.6 106.6c.4 1 .3 2.2-.5 3.1s-1.8 1.4-2.9 1.3c-.4-1-.3-2.2.5-3.1.7-.9 1.8-1.4 2.9-1.3z"/><g><path fill="#FFF" d="M618.7 113.2c.3 1 1.1 1.9 2.3 2.2 1.2.3 2.3 0 3.1-.7-.3-1-1.1-1.9-2.3-2.2-1.2-.3-2.4 0-3.1.7z"/></g><g><path fill="#FFF" d="M617.4 106.6c-.4 1-.3 2.2.5 3.1s1.8 1.4 2.9 1.3c.4-1 .3-2.2-.5-3.1-.7-.9-1.8-1.4-2.9-1.3z"/></g><g><path fill="#FFF" d="M644.6 106.6c.4 1 .3 2.2-.5 3.1s-1.8 1.4-2.9 1.3c-.4-1-.3-2.2.5-3.1.7-.9 1.8-1.4 2.9-1.3z"/></g><path fill="#FFF" d="M622 97v9.1c0 5 4.1 9 9 9 5 0 9-4.1 9-9V97h-18zm12.5 9.5c.2-.4.6-.7 1-.5.4.1.7.6.5 1-.6 2.1-2.5 3.4-4.6 3.4-2.7 0-4.8-2.2-4.8-4.8 0-.9.3-1.8.7-2.6.2-.4.7-.5 1.1-.3.4.2.5.7.3 1.1-.3.5-.5 1.1-.5 1.7 0 1.8 1.4 3.2 3.2 3.2h.5V102h-.6v4.1c0 .1 0 .2-.1.3l-.9.9c-.1.1-.2.1-.3.1h-.1c-.1-.1-.2-.2-.2-.3v-5H628c-.5 0-1 .3-1.2.8-.1.3-.4.5-.7.5-.1 0-.2 0-.3-.1-.4-.2-.6-.6-.4-1.1.5-1.1 1.5-1.8 2.7-1.8h7.3c.4 0 .8.4.8.8s-.4.8-.8.8h-1.8v6.6c0-.6.2-1 .9-2.1z"/></g><path fill="#1CB0F6" d="M457 95.3h-21.4c-.7 0-1.3.6-1.3 1.3V118c0 .7.6 1.3 1.3 1.3h11.5V110H444v-3.6h3.1v-2.7c0-3.1 1.9-4.8 4.7-4.8 1.3 0 2.5.1 2.8.1v3.3h-1.9c-1.5 0-1.8.7-1.8 1.8v2.3h3.6l-.5 3.6h-3.1v9.3h6.1c.7 0 1.3-.6 1.3-1.3V96.7c0-.8-.6-1.4-1.3-1.4zM494.6 94.4h-22.3c-1.1 0-1.9.8-1.9 1.9v22.4c0 1 .9 1.9 1.9 1.9h22.3c1.1 0 1.9-.8 1.9-1.9V96.3c.1-1.1-.8-1.9-1.9-1.9zm-16.5 22.3h-3.9v-12.5h3.9v12.5zm-1.9-14.2c-1.2 0-2.3-1-2.3-2.3 0-1.2 1-2.3 2.3-2.3 1.2 0 2.3 1 2.3 2.3-.1 1.3-1.1 2.3-2.3 2.3zm16.5 14.2h-3.9v-6.1c0-1.5 0-3.3-2-3.3s-2.3 1.6-2.3 3.2v6.2h-3.9v-12.5h3.7v1.7h.1c.5-1 1.8-2 3.7-2 3.9 0 4.7 2.6 4.7 6v6.8z"/><g><path fill="#DCDCDC" d="M641.1 144v27.9c0 15.2-12.5 27.7-27.7 27.7s-27.7-12.5-27.7-27.7V144h55.4z"/><path fill="#E7E7E7" d="M611.4 144l-13.2 13.2c-2.9 2.9-2.9 7.6 0 10.5 2.9 2.9 7.6 2.9 10.5 0l23.7-23.7h-21zM603.2 197.6l37.9-37.9V144l-47.3 47.3c2.6 2.7 5.9 4.9 9.4 6.3z"/><path fill="#C4C4C4" d="M638.1 147v24.9c0 13.6-11.1 24.7-24.7 24.7s-24.7-11.1-24.7-24.7V147h49.4m3-3h-55.4v27.9c0 15.2 12.5 27.7 27.7 27.7s27.7-12.5 27.7-27.7V144z"/><path fill="#7AC70C" d="M588.6 207.5c2 2.5 5.4 4 9.1 3.5s6.6-2.7 7.9-5.6c-2-2.5-5.4-4-9.1-3.5-3.7.4-6.7 2.6-7.9 5.6zM575.5 193.9c.9 3.1 3.5 5.7 7.1 6.7 3.6 1 7.2 0 9.4-2.2-.9-3.1-3.5-5.7-7.1-6.7-3.5-1-7.1-.1-9.4 2.2zM571.7 173.6c-1.2 3-.8 6.6 1.4 9.6s5.6 4.4 8.8 4.1c1.2-3 .8-6.6-1.4-9.6s-5.6-4.4-8.8-4.1zM638.2 207.6c-2 2.5-5.4 4-9.1 3.5s-6.6-2.7-7.9-5.6c2-2.5 5.4-4 9.1-3.5s6.6 2.6 7.9 5.6zM651.4 193.9c-.9 3.1-3.5 5.7-7.1 6.7-3.6 1-7.2 0-9.4-2.2.9-3.1 3.5-5.7 7.1-6.7 3.5-1 7.1-.1 9.4 2.2zM655.1 173.6c1.2 3 .8 6.6-1.4 9.6s-5.6 4.4-8.8 4.1c-1.2-3-.8-6.6 1.4-9.6 2.2-2.9 5.6-4.4 8.8-4.1z"/><path fill="#6EAA05" d="M597.8 203.7c2 0 3.9.7 5.3 1.9-1.2 1.8-3.3 3.1-5.7 3.4-.4 0-.7.1-1.1.1-2 0-3.9-.7-5.3-1.9 1.2-1.8 3.3-3.1 5.7-3.4.4 0 .7-.1 1.1-.1m0-2c-.4 0-.9 0-1.4.1-3.7.5-6.6 2.7-7.9 5.6 1.7 2.2 4.6 3.6 7.7 3.6.4 0 .9 0 1.4-.1 3.7-.5 6.6-2.7 7.9-5.6-1.7-2.2-4.5-3.6-7.7-3.6zM582.2 193.3c.8 0 1.5.1 2.2.3 2.3.6 4.2 2.1 5.2 4.1-1.2.8-2.7 1.3-4.3 1.3-.8 0-1.5-.1-2.2-.3-2.3-.6-4.2-2.1-5.2-4.1 1.2-.9 2.7-1.3 4.3-1.3m0-2c-2.6 0-5 1-6.7 2.6.9 3.1 3.5 5.7 7.1 6.7.9.2 1.9.4 2.8.4 2.6 0 5-1 6.7-2.6-.9-3.1-3.5-5.7-7.1-6.7-1-.3-1.9-.4-2.8-.4zM573.2 175.6c2.2.2 4.3 1.4 5.7 3.3 1.4 1.9 2 4.3 1.5 6.4-2.2-.2-4.3-1.4-5.7-3.3-1.4-1.9-2-4.3-1.5-6.4m-.6-2h-.9c-1.2 3-.8 6.6 1.4 9.6 2 2.7 5 4.2 7.9 4.2h.9c1.2-3 .8-6.6-1.4-9.6-2-2.8-5-4.2-7.9-4.2zM629 203.8c.4 0 .7 0 1.1.1 2.4.3 4.5 1.5 5.7 3.4-1.4 1.2-3.3 1.9-5.3 1.9-.4 0-.7 0-1.1-.1-2.4-.3-4.5-1.5-5.7-3.4 1.4-1.2 3.3-1.9 5.3-1.9m0-2c-3.1 0-6 1.4-7.7 3.6 1.3 2.9 4.2 5.2 7.9 5.6.5.1.9.1 1.4.1 3.1 0 6-1.4 7.7-3.6-1.3-2.9-4.2-5.2-7.9-5.6-.5 0-1-.1-1.4-.1zM644.7 193.3c1.6 0 3.1.4 4.3 1.3-1 2-2.9 3.5-5.2 4.1-.7.2-1.5.3-2.2.3-1.6 0-3.1-.4-4.3-1.3 1-2 2.9-3.5 5.2-4.1.7-.2 1.4-.3 2.2-.3m0-2c-.9 0-1.8.1-2.8.4-3.6 1-6.2 3.6-7.1 6.7 1.7 1.6 4.1 2.6 6.7 2.6.9 0 1.8-.1 2.8-.4 3.6-1 6.2-3.6 7.1-6.7-1.7-1.7-4.1-2.6-6.7-2.6zM653.6 175.6c.4 2.1-.1 4.5-1.5 6.4-1.4 1.9-3.5 3.1-5.7 3.3-.4-2.1.1-4.5 1.5-6.4 1.4-1.9 3.5-3.1 5.7-3.3m.6-2c-2.9 0-5.9 1.5-7.9 4.2-2.2 3-2.6 6.7-1.4 9.6h.9c2.9 0 5.9-1.5 7.9-4.2 2.2-3 2.6-6.7 1.4-9.6h-.9z"/></g></g></svg>
