<?xml version="1.0" encoding="UTF-8" standalone="no"?>
<svg width="52px" height="32px" viewBox="0 0 52 32" version="1.1" xmlns="http://www.w3.org/2000/svg" xmlns:xlink="http://www.w3.org/1999/xlink">
    <!-- Generator: sketchtool 40 (33762) - http://www.bohemiancoding.com/sketch -->
    <title>A26522E7-FCE1-4810-BE61-2FE42C650A8F</title>
    <desc>Created with sketchtool.</desc>
    <defs>
        <polygon id="path-1" points="51.2374453 0.000320976492 0 0.000320976492 0 31.2374964 51.2374453 31.2374964 51.2374453 0.000320976492"></polygon>
    </defs>
    <g id="Symbols" stroke="none" stroke-width="1" fill="none" fill-rule="evenodd">
        <g id="Mobile-HEADER-MInimal" transform="translate(-9.000000, -34.000000)">
            <g id="CR-StackedLogo" transform="translate(9.000000, 34.000000)">
                <g id="Page-1">
                    <g id="Group-3" transform="translate(0.000000, 0.160167)">
                        <mask id="mask-2" fill="white">
                            <use xlink:href="#path-1"></use>
                        </mask>
                        <g id="Clip-2"></g>
                        <path d="M34.2741587,14.3173811 L34.2741587,7.24562703 L38.5258133,7.24562703 C40.4783133,7.24562703 42.0831958,8.85099096 42.0831958,10.8030095 C42.0831958,12.7555095 40.4783133,14.3173811 38.5258133,14.3173811 L34.2741587,14.3173811 Z M21.1717378,21.1288232 C19.7403431,22.5603784 17.7878431,23.4279778 15.618684,23.4279778 C11.3233766,23.4279778 7.80948644,19.9140877 7.80948644,15.6189408 C7.80948644,11.3236334 11.3233766,7.80974322 15.618684,7.80974322 C17.7878431,7.80974322 19.7403431,8.67750316 21.1717378,10.1088978 L26.4649611,4.81615597 L26.4649611,26.4217256 L21.1717378,21.1288232 Z M26.4649611,30.8036967 L34.2741587,30.8036967 L34.2741587,21.1288232 L36.5736343,21.1288232 L42.2136727,30.8036967 L51.2374453,30.8036967 L44.3828318,19.6537758 C47.636731,17.9615877 49.8927143,14.577693 49.8927143,10.6295217 C49.8927143,4.98964376 45.2940841,0.434184901 39.6973775,0.434184901 L26.4649611,0.434184901 L26.4649611,4.38219575 C23.6012089,1.69241275 19.8270068,0.000224683544 15.618684,0.000224683544 C7.02855063,0.000224683544 -3.20976496e-05,6.94214376 -3.20976496e-05,15.6189408 C-3.20976496e-05,24.2957378 7.02855063,31.2374964 15.618684,31.2374964 C19.8270068,31.2374964 23.6012089,29.5453083 26.4649611,26.8555253 L26.4649611,30.8036967 Z" id="Fill-1" fill="#00AE4D" mask="url(#mask-2)"></path>
                    </g>
                </g>
            </g>
        </g>
    </g>
</svg>